<?xml version="1.0" encoding="UTF-8" standalone="no"?>
<!-- Created with Inkscape (http://www.inkscape.org/) -->

<svg
     xmlns:dc="http://purl.org/dc/elements/1.1/"
     xmlns:cc="http://creativecommons.org/ns#"
     xmlns:rdf="http://www.w3.org/1999/02/22-rdf-syntax-ns#"
     xmlns:svg="http://www.w3.org/2000/svg"
     xmlns="http://www.w3.org/2000/svg"
     xmlns:sodipodi="http://sodipodi.sourceforge.net/DTD/sodipodi-0.dtd"
     xmlns:inkscape="http://www.inkscape.org/namespaces/inkscape"
     width="253.05"
     height="109.55"
     id="svg4524"
     version="1.1"
     inkscape:version="0.48.5 r10040"
     sodipodi:docname="New document 2">
    <defs
         id="defs4526" />
    <sodipodi:namedview
         id="base"
         pagecolor="#ffffff"
         bordercolor="#666666"
         borderopacity="1.0"
         inkscape:pageopacity="0.0"
         inkscape:pageshadow="2"
         inkscape:zoom="2.22"
         inkscape:cx="274.22713"
         inkscape:cy="46.838339"
         inkscape:document-units="px"
         inkscape:current-layer="layer1"
         showgrid="false"
         fit-margin-top="0"
         fit-margin-left="0"
         fit-margin-right="0"
         fit-margin-bottom="0" />
    <metadata
         id="metadata4529">
        <rdf:RDF>
            <cc:Work
                 rdf:about="">
                <dc:format>image/svg+xml</dc:format>
                <dc:type
                     rdf:resource="http://purl.org/dc/dcmitype/StillImage" />
                <dc:title></dc:title>
            </cc:Work>
        </rdf:RDF>
    </metadata>
    <g
         inkscape:label="Layer 1"
         inkscape:groupmode="layer"
         id="layer1"
         transform="translate(-179.18928,-381.23004)">
        <g
             id="g5734">
            <g
                 transform="translate(-158,-62)"
                 style="stroke:none"
                 id="g5426">
                <polygon
                     style="fill:#6593ab;fill-rule:evenodd;stroke:none"
                     points="54.15,51.7 199.2,51.7 193.6,84.7 59.8,84.7 "
                     id="polygon60"
                     transform="translate(338.93928,399.18004)" />
                <path
                     style="fill:#6b9cb5;fill-rule:evenodd;stroke:none"
                     d="M 469.43928,455.13004 C 461.63928,455.13004 446.73928,455.30004 424.83928,455.63004 L 394.28928,456.13004 392.93928,451.88004 537.73928,450.63004 536.83928,457.13004 C 504.33928,455.80004 481.93928,455.13004 469.43928,455.13004 z"
                     id="path62"
                     inkscape:connector-curvature="0" />
                <path
                     style="fill:#608da3;fill-rule:evenodd;stroke:none"
                     d="M 423.58928,465.68004 C 443.43928,466.41004 461.73928,466.78004 478.63928,466.78004 501.23928,466.78004 520.03928,465.68004 534.93928,463.48004 L 532.43928,483.88004 H 398.63928 L 396.18928,464.38004 C 402.61928,464.78004 411.75928,465.21004 423.58928,465.68004 z"
                     id="path64"
                     inkscape:connector-curvature="0" />
                <path
                     style="fill:#547d8f;fill-rule:evenodd;stroke:none"
                     d="M 423.58928,471.28004 C 443.33928,471.75004 461.63928,471.98004 478.63928,471.98004 501.33928,471.98004 520.13928,471.30004 534.93928,469.93004 L 532.43928,482.78004 H 398.63928 L 396.18928,470.48004 C 400.85928,470.71004 409.98928,470.98004 423.58928,471.28004 z"
                     id="path66"
                     inkscape:connector-curvature="0" />
                <path
                     style="fill:#527a8c;fill-rule:evenodd;stroke:none"
                     d="M 424.48928,476.03004 C 443.53928,476.83004 460.63928,477.28004 476.03928,477.38004 499.73928,477.55004 519.03928,476.98004 533.83928,475.68004 L 532.43928,483.98004 H 456.33928 L 398.48928,482.88004 397.08928,474.63004 C 404.38928,475.10004 413.51928,475.56004 424.48928,476.03004 z"
                     id="path68"
                     inkscape:connector-curvature="0" />
                <path
                     style="fill:#7db4cf;fill-rule:evenodd;stroke:none"
                     d="M 520.53928,445.23004 538.03928,451.23004 H 393.03928 C 391.86928,451.23004 394.45928,450.23004 400.78928,448.23004 403.95928,447.23004 407.23928,446.23004 410.63928,445.23004 H 520.53928 z"
                     id="path70"
                     inkscape:connector-curvature="0" />
                <rect
                     x="392.9393"
                     y="450.63004"
                     style="fill:#a0d4ed;fill-rule:evenodd;stroke:none"
                     width="144.8"
                     height="1.25"
                     id="rect72" />
                <path
                     style="fill:#73a6bf;fill-rule:evenodd;stroke:none"
                     d="M 474.23928,447.03004 C 449.43928,446.86004 433.45928,446.90004 426.38928,447.13004 420.25928,447.33004 413.55928,447.76004 406.28928,448.43004 L 397.18928,449.38004 410.63928,445.23004 H 520.53928 L 536.33928,450.63004 C 528.73928,448.96004 522.23928,447.96004 516.93928,447.63004 512.73928,447.36004 498.53928,447.16004 474.23928,447.03004 z"
                     id="path74"
                     inkscape:connector-curvature="0" />
            </g>
            <g
                 style="stroke:none"
                 id="g5464">
                <path
                     inkscape:connector-curvature="0"
                     id="path76"
                     d="M 386.33928,424.68004 C 397.83928,432.98004 405.43928,439.01004 409.23928,442.78004 410.83928,444.48004 411.73928,447.48004 411.73928,451.78004 411.73928,453.98004 411.53928,455.98004 411.23928,457.78004 H 200.18928 C 200.01928,456.08004 199.90928,454.18004 199.83928,451.98004 199.66928,447.68004 199.78928,444.28004 200.18928,441.78004 200.61928,439.15004 208.73928,433.35004 224.53928,424.38004 238.90928,416.25004 248.45928,411.38004 253.18928,409.78004 257.18928,408.45004 274.43928,407.78004 304.93928,407.78004 333.13928,407.78004 350.83928,408.11004 358.23928,408.78004 362.93928,409.21004 372.33928,414.51004 386.33928,424.68004 z"
                     style="fill:#c9bb89;fill-rule:evenodd;stroke:none" />
                <path
                     inkscape:connector-curvature="0"
                     id="path78"
                     d="M 358.23928,408.78004 C 363.23928,409.25004 373.43928,415.18004 388.93928,426.58004 408.13928,436.48004 419.63928,443.58004 423.33928,447.78004 427.53928,452.48004 429.43928,460.08004 429.13928,470.38004 428.93928,474.28004 428.53928,477.78004 427.73928,480.78004 426.93928,483.68004 426.13928,485.28004 425.33928,485.48004 423.93928,485.78004 421.23928,485.38004 417.43928,484.38004 L 412.03928,482.78004 414.73928,458.08004 200.18928,457.78004 C 198.01928,458.78004 197.16928,462.88004 197.63928,470.18004 197.86928,473.78004 198.31928,477.38004 198.98928,480.78004 197.31928,481.48004 195.48928,482.18004 193.48928,482.88004 189.48928,484.18004 186.65628,484.78004 184.98928,484.48004 182.95628,484.08004 181.88928,479.68004 181.78928,471.18004 181.65628,462.48004 182.62228,456.48004 184.68928,453.18004 187.28928,448.68004 191.48928,444.18004 197.28928,439.68004 200.25928,437.26004 203.36928,434.98004 206.63928,432.78004 207.43928,432.05004 211.83928,429.76004 219.83928,425.93004 223.83928,424.03004 227.75928,422.20004 231.58928,420.43004 V 420.48004 C 236.48928,417.81004 240.96928,415.48004 245.03928,413.48004 249.10928,411.48004 251.81928,410.25004 253.18928,409.78004 257.18928,408.45004 274.43928,407.78004 304.93928,407.78004 333.13928,407.78004 350.83928,408.11004 358.23928,408.78004 z"
                     style="fill:#d9c993;fill-rule:evenodd;stroke:none" />
                <path
                     inkscape:connector-curvature="0"
                     id="path80"
                     d="M 270.68928,424.73004 C 293.63928,425.33004 307.93928,425.63004 313.63928,425.63004 322.43928,425.63004 346.33928,425.11004 385.43928,424.08004 386.43928,424.81004 388.23928,425.85004 390.73928,427.18004 393.23928,428.48004 394.93928,429.48004 395.83928,430.18004 383.53928,430.48004 373.73928,430.63004 366.43928,430.63004 335.83928,430.40004 308.83928,430.28004 285.63928,430.28004 277.98928,430.28004 265.23928,430.21004 247.43928,430.08004 230.70928,429.91004 218.75928,429.78004 211.58928,429.68004 212.71928,428.98004 214.81928,428.00004 217.88928,426.73004 221.08928,425.43004 223.31928,424.41004 224.58928,423.68004 230.35928,423.75004 245.71928,424.10004 270.68928,424.73004 z"
                     style="fill:#a4b6bf;fill-rule:evenodd;stroke:none" />
                <path
                     inkscape:connector-curvature="0"
                     id="path82"
                     d="M 399.13928,432.03004 C 399.73928,432.56004 401.23928,433.36004 403.43928,434.43004 405.43928,435.50004 406.73928,436.25004 407.33928,436.68004 394.03928,436.51004 383.93928,436.43004 377.23928,436.43004 372.83928,436.43004 352.93928,436.10004 317.43928,435.43004 289.63928,434.93004 269.90928,434.93004 258.23928,435.43004 251.83928,435.73004 242.15928,436.01004 229.18928,436.28004 212.05928,436.65004 202.51928,436.86004 200.58928,436.93004 203.78928,434.56004 205.61928,433.23004 206.08928,432.93004 212.48928,433.00004 225.96928,432.78004 246.53928,432.28004 268.46928,431.71004 284.33928,431.43004 294.13928,431.43004 300.83928,431.43004 319.23928,431.60004 349.53928,431.93004 374.33928,432.20004 390.83928,432.23004 399.13928,432.03004 z"
                     style="fill:#bfa796;fill-rule:evenodd;stroke:none" />
                <path
                     inkscape:connector-curvature="0"
                     id="path84"
                     d="M 373.23928,415.78004 379.63928,419.98004 C 354.33928,420.28004 334.63928,420.43004 320.53928,420.43004 H 231.58928 L 239.08928,416.48004 C 251.08928,416.01004 260.66928,415.78004 267.83928,415.78004 H 373.23928 z"
                     style="fill:#bf9696;fill-rule:evenodd;stroke:none" />
                <path
                     inkscape:connector-curvature="0"
                     id="path86"
                     d="M 363.03928,413.48004 C 364.33928,413.98004 366.23928,414.86004 368.63928,416.13004 H 248.18928 C 251.11928,414.70004 253.13928,413.81004 254.23928,413.48004 H 363.03928 z"
                     style="fill:#b18c59;fill-rule:evenodd;stroke:none" />
                <path
                     inkscape:connector-curvature="0"
                     id="path88"
                     d="M 281.33928,437.43004 C 290.33928,437.76004 305.33928,438.36004 326.33928,439.18004 346.63928,439.78004 367.23928,439.58004 388.23928,438.78004 390.23928,438.71004 393.13928,438.68004 396.83928,438.68004 400.23928,438.68004 402.73928,438.63004 404.23928,438.53004 405.83928,438.23004 408.33928,438.81004 411.73928,440.28004 415.23928,441.88004 418.43928,443.88004 421.33928,446.38004 423.83928,448.68004 425.73928,451.28004 426.93928,454.28004 427.53928,455.78004 427.93928,457.08004 428.03928,458.18004 426.93928,458.38004 423.73928,458.38004 418.63928,458.18004 L 411.23928,457.78004 H 215.43928 L 215.33928,458.18004 C 207.33928,458.98004 200.66928,459.18004 195.33928,458.78004 193.03928,458.58004 190.18928,458.48004 186.78928,458.48004 H 182.33928 C 182.17228,457.58004 182.38928,456.38004 182.98928,454.88004 184.15628,451.78004 186.60628,448.48004 190.33928,444.98004 192.83928,442.58004 196.58928,440.78004 201.58928,439.68004 L 202.03928,439.18004 H 204.08928 C 209.31928,438.31004 215.23928,438.15004 221.83928,438.68004 229.06928,438.45004 239.23928,438.06004 252.33928,437.53004 263.40928,437.16004 273.06928,437.13004 281.33928,437.43004 z"
                     style="fill:#b0a278;fill-rule:evenodd;stroke:none" />
                <path
                     inkscape:connector-curvature="0"
                     id="path90"
                     d="M 385.53928,424.08004 389.23928,426.78004 373.23928,426.28004 218.33928,426.18004 C 218.80928,425.91004 219.88928,425.50004 221.58928,424.93004 223.25928,424.40004 224.33928,423.98004 224.83928,423.68004 259.03928,424.08004 280.13928,424.28004 288.13928,424.28004 L 385.53928,424.08004 z"
                     style="fill:#b18c59;fill-rule:evenodd;stroke:none" />
                <path
                     inkscape:connector-curvature="0"
                     id="path92"
                     d="M 272.33928,446.78004 C 253.96928,447.18004 241.08928,447.48004 233.68928,447.58004 221.95928,447.78004 206.83928,447.48004 188.33928,446.98004 L 194.08928,442.78004 224.48928,442.98004 C 246.01928,443.08004 260.01928,442.98004 266.48928,442.78004 271.65928,442.58004 287.83928,442.48004 314.93928,442.28004 342.23928,442.08004 358.63928,441.98004 364.13928,441.78004 375.13928,441.48004 392.83928,441.78004 417.43928,442.78004 L 423.83928,447.48004 C 405.33928,447.38004 386.43928,447.28004 367.23928,447.28004 361.43928,447.28004 345.93928,447.18004 320.63928,446.88004 300.33928,446.58004 284.23928,446.58004 272.33928,446.78004 z"
                     style="fill:#95a5ad;fill-rule:evenodd;stroke:none" />
                <path
                     inkscape:connector-curvature="0"
                     id="path94"
                     d="M 428.03928,458.18004 H 184.63928 L 187.78928,456.88004 C 190.51928,455.88004 193.50928,454.98004 196.73928,454.18004 200.06928,453.28004 222.71928,452.68004 264.68928,452.18004 292.23928,451.88004 318.13928,451.78004 342.33928,451.78004 371.13928,451.78004 388.43928,451.78004 394.13928,451.88004 404.23928,451.98004 411.33928,452.28004 415.33928,452.78004 419.73928,453.38004 423.23928,454.38004 425.63928,455.98004 426.83928,456.78004 427.63928,457.48004 428.03928,458.18004 z"
                     style="fill:#947b6c;fill-rule:evenodd;stroke:none" />
            </g>
            <g
                 transform="translate(0,-60)"
                 id="g5526">
                <path
                     inkscape:connector-curvature="0"
                     id="path52"
                     d="M 189.48928,535.68004 197.13928,542.38004 C 197.06928,542.38004 195.56928,543.48004 192.63928,545.58004 190.66928,546.98004 188.28928,547.48004 185.48928,547.18004 184.72228,546.98004 183.97228,545.78004 183.23928,543.48004 182.53928,541.18004 182.12228,538.78004 181.98928,536.28004 L 189.48928,535.68004 z"
                     style="fill:#9c916a;fill-rule:evenodd;stroke:none" />
                <path
                     inkscape:connector-curvature="0"
                     id="path54"
                     d="M 428.63928,535.78004 C 428.33928,538.48004 427.83928,540.68004 427.23928,542.58004 426.63928,544.38004 425.93928,545.28004 425.33928,545.48004 424.23928,545.68004 421.43928,545.38004 416.93928,544.48004 L 419.83928,533.48004 428.63928,535.78004 z"
                     style="fill:#9c916a;fill-rule:evenodd;stroke:none" />
                <path
                     inkscape:connector-curvature="0"
                     id="path96"
                     d="M 184.33928,535.98004 197.33928,535.48004 198.98928,540.78004 C 197.91928,541.58004 196.70928,542.48004 195.33928,543.28004 192.53928,544.98004 190.30928,545.78004 188.63928,545.78004 186.97228,545.78004 185.75528,544.18004 184.98928,540.88004 L 184.33928,535.98004 z"
                     style="fill:#7d7555;fill-rule:evenodd;stroke:none" />
                <path
                     inkscape:connector-curvature="0"
                     id="path98"
                     d="M 425.53928,540.78004 C 424.23928,544.38004 422.63928,546.18004 420.63928,546.18004 418.73928,546.18004 416.53928,545.68004 414.23928,544.78004 L 411.33928,543.48004 412.63928,535.48004 H 426.83928 L 425.53928,540.78004 z"
                     style="fill:#7d7555;fill-rule:evenodd;stroke:none" />
                <path
                     inkscape:connector-curvature="0"
                     id="path260"
                     d="M 427.53928,534.78004 425.73928,541.48004 C 425.23928,541.08004 424.53928,540.78004 423.73928,540.48004 422.03928,539.78004 420.33928,539.48004 418.73928,539.48004 417.03928,539.48004 415.43928,539.98004 413.83928,541.18004 L 411.93928,542.78004 412.63928,534.88004 427.53928,534.78004 z"
                     style="fill:#635d44;fill-rule:evenodd;stroke:none" />
                <path
                     inkscape:connector-curvature="0"
                     id="path262"
                     d="M 184.33928,535.98004 197.33928,535.48004 198.98928,540.78004 C 195.65928,540.38004 193.31928,540.18004 191.98928,540.18004 190.28928,540.18004 188.68928,540.38004 187.18928,540.88004 L 185.48928,541.68004 184.33928,535.98004 z"
                     style="fill:#635d44;fill-rule:evenodd;stroke:none" />
            </g>
            <g
                 transform="translate(0,34)"
                 style="stroke:none"
                 id="g4878">
                <path
                     id="path3606"
                     d="M 358.47128,374.98004 C 359.47128,376.21304 359.92128,377.11304 359.82128,377.68004 359.72128,378.24604 357.02128,378.53004 351.72128,378.53004 350.75428,378.53004 348.53728,378.46404 345.07128,378.33004 341.60428,378.19704 339.33828,378.09704 338.27128,378.03004 337.17128,377.96404 336.08828,377.99704 335.02128,378.13004 333.88828,378.29704 333.17128,378.54704 332.87128,378.88004 332.60428,379.18004 331.25428,379.36304 328.82128,379.43004 326.85428,379.49704 324.80428,379.48004 322.67128,379.38004 321.33828,379.31404 316.20528,379.31404 307.27128,379.38004 296.33828,379.48004 290.38828,379.53004 289.42128,379.53004 286.62128,379.53004 284.77128,379.26304 283.87128,378.73004 L 283.42128,377.88004 270.07128,378.73004 C 263.87128,379.03004 259.53828,378.74704 257.07128,377.88004 255.70428,377.38004 255.48828,376.58004 256.42128,375.48004 256.92128,374.94704 257.53828,374.44704 258.27128,373.98004 L 358.47128,374.98004 z"
                     style="opacity:0.25;fill-rule:evenodd;stroke:none"
                     inkscape:connector-curvature="0" />
                <g
                     style="stroke:none"
                     id="g4849"
                     transform="translate(100,0)">
                    <path
                         style="fill:#71566b;fill-rule:evenodd;stroke:none"
                         d="M 167.43928,358.03004 C 170.20928,357.90004 174.46928,357.81004 180.23928,357.78004 184.63928,357.78004 189.53928,357.56004 195.03928,357.13004 198.83928,356.83004 200.93928,356.80004 201.33928,357.03004 201.93928,357.30004 202.33928,358.25004 202.63928,359.88004 203.03928,362.41004 203.33928,363.91004 203.43928,364.38004 203.53928,364.68004 204.33928,366.80004 205.93928,370.73004 207.13928,373.63004 207.63928,375.38004 207.43928,375.98004 207.13928,376.58004 205.33928,376.86004 202.03928,376.83004 194.23928,376.70004 189.83928,376.63004 188.83928,376.63004 186.33928,376.66004 181.33928,376.93004 173.78928,377.43004 167.81928,377.80004 164.33928,377.90004 163.33928,377.73004 161.66928,377.43004 160.45928,376.95004 159.68928,376.28004 158.61928,375.32004 158.00928,373.78004 157.83928,371.68004 157.53928,367.98004 157.40928,365.35004 157.43928,363.78004 157.50928,361.18004 157.93928,359.70004 158.73928,359.33004 160.03928,358.70004 162.93928,358.26004 167.43928,358.03004 z"
                         id="path106"
                         inkscape:connector-curvature="0" />
                    <path
                         style="fill:#785c71;fill-rule:evenodd;stroke:none"
                         d="M 194.33928,359.73004 C 196.43928,359.16004 198.33928,358.90004 200.03928,358.93004 199.73928,359.43004 199.53928,360.21004 199.43928,361.28004 199.33928,362.25004 199.03928,363.00004 198.53928,363.53004 198.03928,364.00004 197.43928,364.58004 196.53928,365.28004 195.43928,366.15004 194.73928,366.73004 194.43928,367.03004 193.53928,367.90004 192.63928,368.53004 191.93928,368.93004 191.03928,369.43004 189.93928,369.68004 188.83928,369.68004 188.63928,369.68004 188.13928,369.58004 187.53928,369.38004 187.03928,369.18004 186.63928,369.11004 186.33928,369.18004 186.13928,369.25004 185.83928,369.48004 185.43928,369.88004 185.03928,370.25004 184.63928,370.46004 184.43928,370.53004 L 184.33928,367.93004 C 183.63928,368.33004 183.13928,368.63004 182.73928,368.83004 182.13928,369.16004 181.53928,369.36004 181.03928,369.43004 181.23928,369.26004 181.43928,369.05004 181.63928,368.78004 181.73928,368.61004 181.83928,368.40004 182.03928,368.13004 180.63928,368.93004 179.53928,369.53004 178.68928,369.93004 177.35928,370.63004 176.18928,371.13004 175.18928,371.43004 175.41928,371.16004 175.68928,370.75004 175.98928,370.18004 175.45928,370.51004 174.60928,370.95004 173.43928,371.48004 172.23928,371.98004 171.36928,372.40004 170.83928,372.73004 172.03928,371.33004 172.78928,370.45004 173.08928,370.08004 174.08928,368.78004 174.55928,367.91004 174.48928,367.48004 174.58928,367.35004 174.71928,367.20004 174.88928,367.03004 172.55928,367.53004 171.20928,367.81004 170.83928,367.88004 171.23928,367.51004 172.65928,366.78004 175.08928,365.68004 174.21928,365.61004 173.50928,365.66004 172.93928,365.83004 174.40928,364.73004 175.71928,364.20004 176.88928,364.23004 175.88928,363.63004 174.63928,363.26004 173.13928,363.13004 171.36928,363.03004 170.01928,362.95004 169.08928,362.88004 169.58928,362.51004 170.66928,362.16004 172.33928,361.83004 173.86928,361.53004 174.86928,361.15004 175.33928,360.68004 175.06928,360.48004 174.60928,360.26004 173.93928,360.03004 173.33928,359.80004 172.91928,359.58004 172.68928,359.38004 173.55928,359.28004 174.81928,359.33004 176.48928,359.53004 H 176.23928 C 176.36928,359.60004 176.60928,359.66004 176.93928,359.73004 177.23928,359.80004 177.45928,359.88004 177.58928,359.98004 177.48928,359.81004 177.43928,359.56004 177.43928,359.23004 177.43928,358.83004 177.41928,358.56004 177.38928,358.43004 177.95928,358.56004 178.68928,358.93004 179.63928,359.53004 180.43928,360.16004 181.13928,360.53004 181.63928,360.63004 181.63928,359.96004 181.73928,359.48004 181.63928,359.18004 183.43928,359.45004 184.13928,360.23004 183.93928,361.53004 185.13928,361.00004 186.93928,360.30004 189.53928,359.43004 189.33928,359.66004 189.23928,359.98004 189.13928,360.38004 188.93928,360.98004 188.83928,361.30004 188.83928,361.33004 190.13928,361.00004 191.93928,360.46004 194.33928,359.73004 z"
                         id="path108"
                         inkscape:connector-curvature="0" />
                    <path
                         style="fill:#634c5e;fill-rule:evenodd;stroke:none"
                         d="M 191.03928,375.08004 C 190.73928,375.75004 189.63928,376.28004 187.63928,376.68004 185.53928,376.75004 180.63928,377.01004 173.13928,377.48004 167.56928,377.85004 164.30928,377.93004 163.33928,377.73004 162.00928,377.46004 161.06928,377.16004 160.53928,376.83004 159.96928,376.16004 159.51928,375.35004 159.18928,374.38004 158.55928,372.65004 158.06928,371.43004 157.73928,370.73004 157.40928,366.96004 157.31928,364.25004 157.48928,362.58004 157.71928,361.65004 157.91928,361.01004 158.08928,360.68004 158.38928,360.01004 158.80928,359.48004 159.33928,359.08004 160.36928,358.75004 162.10928,358.46004 164.53928,358.23004 L 164.08928,359.33004 C 163.95928,359.80004 163.93928,360.21004 164.03928,360.58004 164.20928,361.15004 164.28928,361.50004 164.28928,361.63004 164.28928,361.76004 164.31928,362.66004 164.38928,364.33004 164.41928,365.50004 164.48928,366.43004 164.58928,367.13004 165.11928,367.16004 166.66928,367.18004 169.23928,367.18004 167.70928,367.68004 166.15928,368.80004 164.58928,370.53004 165.18928,370.36004 165.91928,370.25004 166.78928,370.18004 166.18928,370.78004 165.75928,371.20004 165.48928,371.43004 165.58928,371.50004 165.73928,371.58004 165.93928,371.68004 164.96928,373.81004 165.06928,374.93004 166.23928,375.03004 166.63928,375.06004 168.15928,374.71004 170.78928,373.98004 169.95928,374.65004 169.46928,375.30004 169.33928,375.93004 169.56928,375.86004 170.03928,375.70004 170.73928,375.43004 171.33928,375.16004 171.81928,375.00004 172.18928,374.93004 172.21928,375.03004 172.21928,375.11004 172.18928,375.18004 173.21928,374.95004 174.48928,374.53004 175.98928,373.93004 176.11928,375.03004 177.21928,374.95004 179.23928,373.68004 180.33928,373.01004 181.63928,372.08004 183.13928,370.88004 182.73928,371.65004 182.43928,372.50004 182.33928,373.43004 L 184.53928,372.83004 C 184.83928,373.43004 185.83928,373.93004 187.53928,374.33004 188.43928,374.56004 189.63928,374.81004 191.03928,375.08004 z"
                         id="path110"
                         inkscape:connector-curvature="0" />
                    <path
                         style="fill:#52404d;fill-rule:evenodd;stroke:none"
                         d="M 186.53928,376.13004 C 183.43928,377.16004 179.43928,377.66004 174.53928,377.63004 168.96928,377.40004 164.90928,377.28004 162.33928,377.28004 160.43928,377.31004 159.20928,376.70004 158.63928,375.43004 158.43928,375.00004 158.15928,373.46004 157.78928,370.83004 157.35928,367.83004 157.11928,365.83004 157.08928,364.83004 156.95928,361.90004 157.41928,360.06004 158.48928,359.33004 L 159.38928,359.78004 C 159.68928,359.45004 159.93928,359.33004 160.13928,359.43004 160.36928,359.60004 160.65928,359.60004 160.98928,359.43004 160.58928,360.70004 160.36928,361.46004 160.33928,361.73004 160.50928,361.70004 160.78928,361.71004 161.18928,361.78004 161.58928,361.85004 161.86928,361.86004 162.03928,361.83004 161.96928,362.26004 161.86928,362.91004 161.73928,363.78004 161.60928,364.55004 161.43928,365.15004 161.23928,365.58004 161.53928,365.65004 161.83928,365.81004 162.13928,366.08004 161.80928,366.51004 161.56928,366.80004 161.43928,366.93004 L 162.13928,367.83004 C 162.53928,367.83004 163.28928,367.78004 164.38928,367.68004 165.31928,367.61004 166.05928,367.61004 166.58928,367.68004 165.75928,368.08004 165.10928,368.40004 164.63928,368.63004 163.86928,369.00004 163.26928,369.40004 162.83928,369.83004 L 163.83928,369.93004 C 163.70928,370.63004 163.50928,371.13004 163.23928,371.43004 163.76928,371.53004 164.08928,372.16004 164.18928,373.33004 164.21928,374.00004 164.20928,374.93004 164.13928,376.13004 164.83928,376.20004 166.16928,376.08004 168.13928,375.78004 168.06928,375.91004 168.01928,376.18004 167.98928,376.58004 169.45928,376.81004 171.18928,376.58004 173.18928,375.88004 174.05928,375.58004 175.65928,374.86004 177.98928,373.73004 177.75928,375.46004 179.13928,376.00004 182.23928,375.33004 185.23928,374.66004 186.73928,374.93004 186.53928,376.13004 z"
                         id="path112"
                         inkscape:connector-curvature="0" />
                    <path
                         style="fill:#40313c;fill-rule:evenodd;stroke:none"
                         d="M 164.13928,376.63004 C 165.40928,376.96004 166.96928,377.11004 168.83928,377.08004 169.93928,377.05004 171.55928,376.95004 173.68928,376.78004 L 178.93928,376.48004 C 179.33928,376.48004 180.13928,376.38004 181.43928,376.18004 182.63928,376.08004 183.43928,376.18004 183.73928,376.48004 183.33928,376.91004 182.53928,377.18004 181.43928,377.28004 180.13928,377.31004 179.23928,377.35004 178.78928,377.38004 177.65928,377.48004 176.78928,377.55004 176.18928,377.58004 175.15928,377.65004 174.26928,377.68004 173.53928,377.68004 171.00928,377.75004 169.06928,377.80004 167.73928,377.83004 165.36928,377.90004 163.66928,377.85004 162.63928,377.68004 161.93928,377.28004 161.93928,377.08004 162.63928,377.08004 163.66928,377.08004 164.21928,377.03004 164.28928,376.93004 L 164.13928,376.63004 z"
                         id="path114"
                         inkscape:connector-curvature="0" />
                    <path
                         style="fill:#785c71;fill-rule:evenodd;stroke:none"
                         d="M 168.23928,359.93004 C 169.43928,359.73004 170.45928,359.70004 171.28928,359.83004 171.21928,359.90004 169.96928,360.41004 167.53928,361.38004 166.00928,361.98004 165.46928,362.93004 165.93928,364.23004 166.60928,364.43004 166.96928,364.53004 167.03928,364.53004 166.36928,365.03004 165.90928,365.31004 165.63928,365.38004 166.20928,365.75004 166.95928,365.96004 167.88928,366.03004 168.45928,366.06004 169.28928,366.10004 170.38928,366.13004 170.08928,366.63004 169.55928,367.16004 168.78928,367.73004 167.85928,368.43004 167.25928,368.93004 166.98928,369.23004 167.48928,369.66004 168.16928,369.98004 169.03928,370.18004 168.96928,370.45004 168.70928,370.86004 168.23928,371.43004 167.80928,371.93004 167.56928,372.38004 167.53928,372.78004 167.93928,372.85004 168.28928,372.86004 168.58928,372.83004 168.71928,373.13004 168.86928,373.35004 169.03928,373.48004 169.30928,373.38004 169.73928,373.23004 170.33928,373.03004 169.23928,373.60004 168.36928,373.98004 167.73928,374.18004 166.56928,374.58004 165.73928,374.50004 165.23928,373.93004 165.46928,373.36004 165.83928,372.68004 166.33928,371.88004 165.93928,371.75004 165.60928,371.68004 165.33928,371.68004 165.60928,371.35004 165.85928,370.76004 166.08928,369.93004 L 163.98928,370.08004 C 164.38928,369.45004 165.10928,368.83004 166.13928,368.23004 167.60928,367.40004 168.41928,366.91004 168.58928,366.78004 167.91928,366.71004 167.15928,366.73004 166.28928,366.83004 165.28928,367.00004 164.51928,367.11004 163.98928,367.18004 L 164.93928,366.53004 C 164.03928,366.56004 163.38928,366.61004 162.98928,366.68004 164.11928,365.75004 164.70928,365.26004 164.73928,365.23004 164.30928,364.93004 163.95928,364.75004 163.68928,364.68004 L 164.53928,361.98004 C 164.83928,360.91004 164.25928,360.40004 162.78928,360.43004 162.91928,360.10004 163.20928,359.80004 163.63928,359.53004 163.83928,359.41004 164.09928,359.26004 164.43928,359.08004 L 166.58928,358.93004 C 165.95928,359.70004 165.50928,360.20004 165.23928,360.43004 165.90928,360.36004 166.90928,360.20004 168.23928,359.93004 z"
                         id="path116"
                         inkscape:connector-curvature="0" />
                    <path
                         style="fill:#40313c;fill-rule:evenodd;stroke:none"
                         d="M 161.53928,365.63004 C 161.96928,365.70004 162.28928,365.71004 162.48928,365.68004 162.21928,365.75004 162.01928,365.81004 161.88928,365.88004 161.85928,365.95004 161.91928,366.03004 162.08928,366.13004 L 162.23928,366.28004 C 161.86928,366.51004 161.58928,366.75004 161.38928,366.98004 161.71928,367.45004 162.36928,367.70004 163.33928,367.73004 163.86928,367.76004 164.61928,367.73004 165.58928,367.63004 164.55928,368.06004 163.36928,368.43004 162.03928,368.73004 160.60928,369.06004 159.35928,369.21004 158.28928,369.18004 158.95928,368.35004 159.85928,367.83004 160.98928,367.63004 159.65928,366.90004 158.66928,366.30004 158.03928,365.83004 158.23928,365.76004 158.60928,365.48004 159.13928,364.98004 158.90928,364.88004 158.75928,364.80004 158.68928,364.73004 159.41928,364.40004 159.68928,363.98004 159.48928,363.48004 159.28928,362.98004 158.81928,362.70004 158.08928,362.63004 158.48928,362.06004 159.21928,361.56004 160.28928,361.13004 L 160.73928,361.78004 C 161.20928,361.75004 161.80928,361.85004 162.53928,362.08004 161.40928,363.55004 160.73928,364.71004 160.53928,365.58004 160.73928,365.58004 161.06928,365.60004 161.53928,365.63004 z"
                         id="path118"
                         inkscape:connector-curvature="0" />
                    <path
                         style="fill:#40313c;fill-rule:evenodd;stroke:none"
                         d="M 164.93928,377.28004 C 162.40928,378.05004 160.58928,377.80004 159.48928,376.53004 158.58928,375.50004 158.10928,373.58004 158.03928,370.78004 V 368.98004 C 158.40928,368.91004 158.81928,369.08004 159.28928,369.48004 159.78928,369.88004 160.18928,370.10004 160.48928,370.13004 159.48928,370.56004 159.28928,371.36004 159.88928,372.53004 160.58928,372.56004 161.36928,372.38004 162.23928,371.98004 163.16928,371.55004 163.86928,371.31004 164.33928,371.28004 164.10928,371.65004 163.86928,372.43004 163.63928,373.63004 163.40928,374.66004 163.11928,375.35004 162.78928,375.68004 163.01928,375.65004 163.28928,375.70004 163.58928,375.83004 163.91928,375.93004 164.15928,375.98004 164.28928,375.98004 164.25928,376.25004 164.33928,376.60004 164.53928,377.03004 L 163.98928,377.33004 C 164.18928,377.30004 164.50928,377.28004 164.93928,377.28004 z"
                         id="path120"
                         inkscape:connector-curvature="0" />
                    <path
                         style="fill:#40313c;fill-rule:evenodd;stroke:none"
                         d="M 162.98928,369.43004 C 163.01928,369.53004 162.96928,369.70004 162.83928,369.93004 162.80928,370.16004 162.90928,370.38004 163.13928,370.58004 162.80928,370.65004 162.33928,370.80004 161.73928,371.03004 161.13928,371.26004 160.68928,371.40004 160.38928,371.43004 161.61928,370.30004 162.48928,369.63004 162.98928,369.43004 z"
                         id="path122"
                         inkscape:connector-curvature="0" />
                    <path
                         style="fill:#40313c;fill-rule:evenodd;stroke:none"
                         d="M 157.63928,361.18004 H 160.38928 C 158.45928,362.15004 157.36928,363.01004 157.13928,363.78004 157.03928,364.11004 157.11928,364.68004 157.38928,365.48004 157.61928,366.18004 157.53928,366.75004 157.13928,367.18004 156.70928,366.25004 156.58928,365.15004 156.78928,363.88004 156.88928,363.18004 157.16928,362.11004 157.63928,360.68004 V 361.18004 z"
                         id="path124"
                         inkscape:connector-curvature="0" />
                    <path
                         style="fill:#634c5e;fill-rule:evenodd;stroke:none"
                         d="M 181.43928,358.53004 C 180.23928,358.16004 179.33928,358.01004 178.68928,358.08004 178.78928,358.21004 178.93928,358.46004 179.13928,358.83004 177.65928,358.56004 176.36928,358.35004 175.33928,358.18004 173.40928,357.88004 172.45928,358.12004 172.48928,358.88004 171.58928,358.71004 170.90928,358.60004 170.43928,358.53004 169.63928,358.36004 168.95928,358.30004 168.38928,358.33004 L 169.18928,358.93004 C 168.35928,358.76004 167.26928,358.70004 165.93928,358.73004 164.50928,358.76004 163.50928,358.78004 162.93928,358.78004 L 163.08928,358.93004 C 162.65928,358.93004 162.25928,358.80004 161.88928,358.53004 164.81928,358.10004 170.93928,357.85004 180.23928,357.78004 184.23928,357.75004 188.33928,357.60004 192.53928,357.33004 197.03928,357.00004 199.33928,356.83004 199.63928,356.83004 L 200.33928,356.98004 C 199.33928,357.32004 197.33928,357.57004 194.43928,357.73004 193.73928,357.80004 192.73928,358.03004 191.43928,358.43004 190.13928,358.83004 189.13928,359.05004 188.43928,359.08004 188.33928,358.68004 188.33928,358.40004 188.43928,358.23004 187.63928,358.53004 187.13928,358.68004 186.93928,358.68004 186.73928,358.68004 186.63928,358.60004 186.43928,358.43004 186.13928,358.26004 186.03928,358.18004 185.83928,358.18004 185.63928,358.21004 185.33928,358.35004 184.93928,358.58004 184.53928,358.81004 184.23928,358.93004 184.13928,358.93004 183.63928,359.00004 182.73928,358.86004 181.43928,358.53004 z"
                         id="path126"
                         inkscape:connector-curvature="0" />
                </g>
                <g
                     style="stroke:none"
                     id="g4862">
                    <path
                         style="fill:#71566b;fill-rule:evenodd;stroke:none"
                         d="M 336.73928,357.78004 C 342.53928,357.81004 346.83928,357.90004 349.63928,358.03004 354.13928,358.26004 357.03928,358.70004 358.33928,359.33004 359.13928,359.70004 359.53928,361.18004 359.63928,363.78004 359.63928,365.35004 359.53928,367.98004 359.23928,371.68004 358.83928,372.55004 358.33928,373.48004 357.73928,374.48004 356.53928,376.48004 355.53928,377.56004 354.53928,377.73004 353.53928,377.93004 349.93928,377.83004 343.63928,377.43004 335.73928,376.93004 330.53928,376.66004 328.13928,376.63004 327.13928,376.60004 322.73928,376.66004 314.93928,376.83004 311.63928,376.86004 309.83928,376.58004 309.63928,375.98004 309.33928,375.38004 309.83928,373.63004 311.03928,370.73004 312.63928,366.66004 313.53928,364.55004 313.63928,364.38004 313.73928,363.98004 314.03928,362.48004 314.43928,359.88004 314.63928,358.25004 315.03928,357.30004 315.63928,357.03004 316.03928,356.80004 318.13928,356.83004 321.93928,357.13004 327.43928,357.56004 332.33928,357.78004 336.73928,357.78004 z"
                         id="path130"
                         inkscape:connector-curvature="0" />
                    <path
                         style="fill:#785c71;fill-rule:evenodd;stroke:none"
                         d="M 340.73928,359.53004 C 341.13928,359.52004 341.73928,359.47004 342.43928,359.38004 343.13928,359.32004 343.83928,359.32004 344.33928,359.38004 344.13928,359.58004 343.73928,359.80004 343.13928,360.03004 342.43928,360.26004 341.93928,360.48004 341.73928,360.68004 342.13928,361.15004 343.13928,361.53004 344.73928,361.83004 346.33928,362.16004 347.43928,362.51004 347.93928,362.88004 346.03928,362.95004 344.73928,363.03004 343.83928,363.13004 342.33928,363.26004 341.13928,363.63004 340.13928,364.23004 341.33928,364.20004 342.63928,364.73004 344.03928,365.83004 343.43928,365.66004 342.73928,365.61004 341.93928,365.68004 341.93928,365.75004 342.63928,366.10004 344.03928,366.73004 345.23928,367.30004 345.93928,367.68004 346.13928,367.88004 343.83928,367.35004 342.43928,367.06004 342.13928,367.03004 342.13928,367.16004 342.23928,367.31004 342.53928,367.48004 342.43928,367.91004 342.93928,368.63004 344.13928,369.63004 345.73928,371.03004 346.63928,371.76004 346.63928,371.83004 346.13928,371.50004 345.13928,371.23004 343.83928,371.03004 342.43928,370.80004 341.53928,370.51004 340.93928,370.18004 341.13928,370.31004 341.13928,370.66004 341.13928,371.23004 341.13928,371.80004 341.13928,372.15004 341.23928,372.28004 340.33928,372.01004 339.43928,371.61004 338.63928,371.08004 337.73928,370.48004 336.93928,369.98004 336.23928,369.58004 336.23928,369.68004 336.23928,369.98004 336.23928,370.48004 336.23928,370.95004 336.33928,371.25004 336.53928,371.38004 336.03928,371.31004 335.43928,370.78004 334.53928,369.78004 333.53928,368.68004 332.93928,368.06004 332.63928,367.93004 332.63928,368.53004 332.43928,369.68004 332.13928,371.38004 331.83928,371.31004 331.63928,370.94004 331.43928,370.28004 331.13928,369.61004 330.83928,369.24004 330.63928,369.18004 330.43928,369.11004 330.03928,369.18004 329.43928,369.38004 328.83928,369.58004 328.43928,369.68004 328.23928,369.68004 327.03928,369.68004 326.03928,369.43004 325.13928,368.93004 324.33928,368.53004 323.53928,367.89004 322.53928,367.03004 320.63928,365.49004 319.23928,364.33004 318.43928,363.53004 317.93928,362.99004 317.63928,362.24004 317.63928,361.28004 317.43928,360.21004 317.23928,359.43004 316.93928,358.93004 318.63928,358.89004 320.53928,359.16004 322.73928,359.73004 323.93928,360.03004 325.73928,360.56004 328.13928,361.33004 327.93928,360.43004 327.73928,359.79004 327.53928,359.43004 328.03928,359.63004 328.93928,359.98004 330.33928,360.48004 331.53928,360.88004 332.43928,361.23004 333.03928,361.53004 332.83928,360.23004 333.63928,359.45004 335.43928,359.18004 335.33928,359.48004 335.33928,359.96004 335.43928,360.63004 335.83928,360.53004 336.53928,360.16004 337.43928,359.53004 338.33928,358.93004 339.03928,358.56004 339.63928,358.43004 339.53928,358.56004 339.53928,358.83004 339.53928,359.23004 339.53928,359.53004 339.53928,359.78004 339.43928,359.98004 339.63928,359.81004 340.13928,359.66004 340.73928,359.53004 z"
                         id="path132"
                         inkscape:connector-curvature="0" />
                    <path
                         style="fill:#634c5e;fill-rule:evenodd;stroke:none"
                         d="M 341.03928,373.93004 C 342.53928,374.53004 343.83928,374.95004 344.83928,375.18004 L 344.83928,374.93004 C 345.53928,375.06004 346.43928,375.40004 347.73928,375.93004 347.53928,375.23004 347.03928,374.58004 346.23928,373.98004 348.83928,374.71004 350.33928,375.06004 350.73928,375.03004 351.93928,374.93004 352.03928,373.81004 351.03928,371.68004 351.13928,371.58004 351.33928,371.50004 351.53928,371.43004 350.93928,370.76004 350.53928,370.35004 350.23928,370.18004 351.13928,370.25004 351.83928,370.36004 352.43928,370.53004 350.93928,368.80004 349.33928,367.68004 347.73928,367.18004 350.33928,367.18004 351.93928,367.16004 352.43928,367.13004 352.53928,366.43004 352.63928,365.50004 352.63928,364.33004 352.63928,362.63004 352.73928,361.73004 352.73928,361.63004 L 352.93928,360.58004 C 353.03928,360.21004 353.03928,359.80004 352.93928,359.33004 352.73928,358.96004 352.63928,358.60004 352.43928,358.23004 354.93928,358.46004 356.63928,358.75004 357.63928,359.08004 358.13928,359.41004 358.53928,359.95004 358.93928,360.68004 359.03928,361.01004 359.23928,361.65004 359.43928,362.58004 359.63928,364.25004 359.53928,366.96004 359.23928,370.73004 358.83928,371.56004 358.33928,372.78004 357.83928,374.38004 357.73928,374.68004 357.53928,374.81004 357.33928,374.78004 356.93928,374.71004 356.73928,374.79004 356.43928,375.03004 356.23928,375.16004 355.93928,375.64004 355.63928,376.48004 355.23928,377.24004 354.93928,377.66004 354.53928,377.73004 353.53928,377.93004 350.13928,377.85004 344.33928,377.48004 336.43928,377.01004 331.43928,376.74004 329.43928,376.68004 327.43928,376.28004 326.23928,375.74004 325.93928,375.08004 326.43928,374.98004 327.63928,374.73004 329.53928,374.33004 331.23928,373.93004 332.23928,373.43004 332.53928,372.83004 L 334.63928,373.43004 C 334.53928,372.49004 334.23928,371.64004 333.83928,370.88004 334.13928,371.11004 335.43928,372.04004 337.73928,373.68004 339.83928,374.95004 340.93928,375.03004 341.03928,373.93004 z"
                         id="path134"
                         inkscape:connector-curvature="0" />
                    <path
                         style="fill:#52404d;fill-rule:evenodd;stroke:none"
                         d="M 330.43928,376.13004 C 330.23928,374.93004 331.73928,374.66004 334.83928,375.33004 337.83928,376.00004 339.23928,375.46004 338.93928,373.73004 341.33928,374.86004 342.93928,375.58004 343.83928,375.88004 345.83928,376.58004 347.53928,376.81004 349.03928,376.58004 348.93928,376.18004 348.93928,375.91004 348.93928,375.78004 350.83928,376.08004 352.13928,376.20004 352.83928,376.13004 352.83928,374.93004 352.83928,374.00004 352.83928,373.33004 352.93928,372.16004 353.23928,371.53004 353.73928,371.43004 353.63928,371.26004 353.43928,371.00004 353.43928,370.63004 353.23928,370.26004 353.23928,370.03004 353.13928,369.93004 L 354.13928,369.83004 C 353.73928,369.43004 353.13928,369.03004 352.33928,368.63004 351.43928,368.20004 350.83928,367.88004 350.43928,367.68004 350.93928,367.61004 351.73928,367.61004 352.63928,367.68004 353.73928,367.78004 354.43928,367.83004 354.83928,367.83004 L 355.53928,366.93004 C 355.23928,366.46004 355.03928,366.18004 354.83928,366.08004 354.93928,366.05004 355.03928,365.96004 355.23928,365.83004 355.43928,365.70004 355.63928,365.61004 355.73928,365.58004 355.63928,365.25004 355.33928,364.00004 354.93928,361.83004 355.13928,361.86004 355.33928,361.85004 355.73928,361.78004 356.13928,361.71004 356.43928,361.70004 356.63928,361.73004 356.63928,361.63004 356.43928,360.86004 355.93928,359.43004 356.33928,359.60004 356.63928,359.60004 356.83928,359.43004 357.03928,359.33004 357.23928,359.45004 357.53928,359.78004 L 358.43928,359.33004 C 359.53928,360.06004 360.03928,361.90004 359.93928,364.83004 359.93928,365.83004 359.63928,367.83004 359.23928,370.83004 L 358.83928,373.63004 C 358.13928,376.10004 357.03928,377.31004 355.53928,377.28004 350.03928,377.51004 345.83928,377.63004 342.93928,377.63004 337.73928,377.66004 333.53928,377.16004 330.43928,376.13004 z"
                         id="path136"
                         inkscape:connector-curvature="0" />
                    <path
                         style="fill:#40313c;fill-rule:evenodd;stroke:none"
                         d="M 330.33928,376.18004 C 333.13928,376.18004 337.23928,376.43004 342.73928,376.93004 H 349.33928 C 349.73928,376.93004 350.73928,376.90004 352.33928,376.83004 353.73928,376.83004 354.43928,377.10004 354.43928,377.63004 352.93928,377.96004 350.93928,378.08004 348.53928,377.98004 345.83928,377.78004 343.83928,377.68004 342.53928,377.68004 341.03928,377.68004 339.03928,377.56004 336.43928,377.33004 333.63928,377.06004 331.73928,376.91004 330.53928,376.88004 V 376.33004 L 330.33928,376.18004 z"
                         id="path138"
                         inkscape:connector-curvature="0" />
                    <path
                         style="fill:#785c71;fill-rule:evenodd;stroke:none"
                         d="M 353.33928,359.53004 C 353.73928,359.80004 354.03928,360.10004 354.23928,360.43004 352.73928,360.40004 352.13928,360.91004 352.53928,361.98004 L 353.33928,364.68004 C 352.83928,364.98004 352.43928,365.16004 352.23928,365.23004 352.53928,365.56004 353.13928,366.05004 354.03928,366.68004 353.83928,366.65004 353.53928,366.63004 353.03928,366.63004 352.63928,366.63004 352.23928,366.60004 352.03928,366.53004 352.23928,366.66004 352.63928,366.88004 353.03928,367.18004 352.03928,367.01004 351.23928,366.90004 350.73928,366.83004 349.83928,366.73004 349.13928,366.71004 348.43928,366.78004 348.63928,366.91004 349.43928,367.40004 350.83928,368.23004 351.93928,368.83004 352.63928,369.45004 353.03928,370.08004 L 350.93928,369.93004 C 350.93928,369.96004 351.03928,370.26004 351.23928,370.83004 351.33928,371.20004 351.53928,371.48004 351.73928,371.68004 351.23928,371.81004 350.83928,371.88004 350.63928,371.88004 L 351.73928,373.93004 C 351.23928,374.50004 350.43928,374.58004 349.23928,374.18004 348.33928,373.77004 347.53928,373.45004 347.03928,373.23004 347.33928,373.31004 347.63928,373.39004 347.93928,373.48004 348.13928,373.38004 348.23928,373.16004 348.43928,372.83004 348.63928,372.86004 349.03928,372.85004 349.43928,372.78004 349.43928,372.38004 349.23928,371.93004 348.83928,371.43004 348.33928,370.86004 348.13928,370.45004 347.93928,370.18004 348.83928,369.95004 349.43928,369.63004 349.93928,369.23004 349.73928,368.93004 349.13928,368.43004 348.23928,367.73004 347.43928,367.13004 346.93928,366.60004 346.63928,366.13004 347.13928,366.10004 348.03928,366.06004 349.13928,366.03004 350.03928,365.96004 350.83928,365.75004 351.33928,365.38004 350.63928,364.91004 350.23928,364.63004 349.93928,364.53004 L 351.03928,364.23004 C 351.53928,362.93004 350.93928,361.98004 349.43928,361.38004 347.03928,360.38004 345.73928,359.86004 345.63928,359.83004 346.53928,359.69004 347.53928,359.73004 348.73928,359.93004 349.43928,360.03004 350.43928,360.20004 351.73928,360.43004 351.13928,359.66004 350.73928,359.16004 350.43928,358.93004 L 352.53928,359.08004 C 352.73928,359.20004 353.03928,359.35004 353.33928,359.53004 z"
                         id="path140"
                         inkscape:connector-curvature="0" />
                    <path
                         style="fill:#40313c;fill-rule:evenodd;stroke:none"
                         d="M 357.53928,363.48004 C 357.33928,363.98004 357.53928,364.40004 358.33928,364.73004 L 357.83928,364.98004 C 357.93928,365.01004 358.13928,365.16004 358.43928,365.43004 358.63928,365.66004 358.83928,365.80004 359.03928,365.83004 358.43928,366.23004 357.43928,366.83004 356.03928,367.63004 357.13928,367.86004 358.03928,368.38004 358.73928,369.18004 357.63928,369.21004 356.43928,369.06004 355.03928,368.73004 353.63928,368.43004 352.43928,368.06004 351.43928,367.63004 351.83928,367.63004 352.63928,367.66004 353.73928,367.73004 354.63928,367.70004 355.33928,367.45004 355.63928,366.98004 355.43928,366.71004 355.13928,366.48004 354.73928,366.28004 355.03928,366.15004 355.13928,366.01004 355.13928,365.88004 354.83928,365.85004 354.63928,365.78004 354.53928,365.68004 354.73928,365.71004 355.03928,365.70004 355.43928,365.63004 355.93928,365.60004 356.23928,365.58004 356.43928,365.58004 356.23928,364.81004 355.63928,363.65004 354.43928,362.08004 355.13928,361.85004 355.73928,361.75004 356.23928,361.78004 L 356.63928,361.13004 C 357.73928,361.56004 358.53928,362.06004 358.93928,362.63004 358.13928,362.70004 357.73928,362.98004 357.53928,363.48004 z"
                         id="path142"
                         inkscape:connector-curvature="0" />
                    <path
                         style="fill:#40313c;fill-rule:evenodd;stroke:none"
                         d="M 358.93928,368.98004 V 370.78004 C 358.93928,370.91004 358.63928,372.23004 357.93928,374.73004 356.83928,377.08004 355.23928,377.93004 353.03928,377.30004 353.23928,377.35004 353.53928,377.36004 353.93928,377.33004 353.93928,377.30004 353.73928,377.20004 353.43928,377.03004 353.43928,376.93004 353.23928,376.76004 353.03928,376.53004 352.83928,376.30004 352.73928,376.11004 352.63928,375.98004 352.83928,375.98004 353.03928,375.93004 353.33928,375.83004 353.73928,375.70004 353.93928,375.65004 354.13928,375.68004 353.83928,375.35004 353.63928,374.66004 353.33928,373.63004 353.13928,372.43004 352.83928,371.65004 352.63928,371.28004 353.13928,371.31004 353.83928,371.55004 354.73928,371.98004 355.63928,372.38004 356.43928,372.56004 357.13928,372.53004 357.73928,371.36004 357.53928,370.56004 356.43928,370.13004 356.83928,370.10004 357.23928,369.88004 357.73928,369.48004 358.13928,369.08004 358.53928,368.91004 358.93928,368.98004 z"
                         id="path144"
                         inkscape:connector-curvature="0" />
                    <path
                         style="fill:#40313c;fill-rule:evenodd;stroke:none"
                         d="M 354.03928,369.43004 C 354.43928,369.56004 354.83928,369.85004 355.43928,370.28004 355.73928,370.55004 356.13928,370.93004 356.63928,371.43004 356.33928,371.40004 355.83928,371.26004 355.23928,371.03004 354.63928,370.80004 354.13928,370.65004 353.83928,370.58004 354.13928,370.38004 354.23928,370.16004 354.13928,369.93004 354.03928,369.70004 354.03928,369.53004 354.03928,369.43004 z"
                         id="path146"
                         inkscape:connector-curvature="0" />
                    <path
                         style="fill:#40313c;fill-rule:evenodd;stroke:none"
                         d="M 359.33928,361.18004 V 360.68004 C 359.83928,362.11004 360.13928,363.18004 360.23928,363.88004 360.43928,365.15004 360.23928,366.25004 359.83928,367.18004 359.43928,366.75004 359.33928,366.18004 359.63928,365.48004 359.93928,364.68004 359.93928,364.11004 359.93928,363.78004 359.63928,362.98004 358.53928,362.11004 356.63928,361.18004 H 359.33928 z"
                         id="path148"
                         inkscape:connector-curvature="0" />
                    <path
                         inkscape:connector-curvature="0"
                         id="path154"
                         d="M 349.53928,358.33004 C 349.43928,358.26004 349.23928,358.16004 348.93928,358.03004 352.23928,358.23004 354.63928,358.45004 355.93928,358.68004 356.83928,358.91004 357.73928,359.25004 358.73928,359.68004 L 358.73928,359.73004 C 358.03928,359.76004 357.23928,359.63004 356.23928,359.33004 354.83928,358.90004 354.03928,358.66004 353.83928,358.63004 L 352.93928,358.48004 C 351.03928,358.58004 349.53928,358.63004 348.53928,358.63004 348.73928,358.62004 349.13928,358.52004 349.53928,358.33004 z"
                         style="fill:#634c5e;fill-rule:evenodd;stroke:none" />
                    <path
                         inkscape:connector-curvature="0"
                         id="path156"
                         d="M 340.23928,358.48004 C 340.83928,358.28004 341.03928,358.18004 340.83928,358.18004 340.43928,358.25004 340.13928,358.30004 339.93928,358.33004 339.93928,358.13004 339.73928,357.96004 339.43928,357.83004 L 345.13928,357.88004 C 342.13928,358.28004 340.53928,358.48004 340.23928,358.48004 z"
                         style="fill:#634c5e;fill-rule:evenodd;stroke:none" />
                    <path
                         style="fill:#634c5e;fill-rule:evenodd;stroke:none"
                         d="M 349.63928,374.98004 H 350.23928 L 350.43928,375.23004 C 350.33928,375.26004 349.93928,375.25004 349.53928,375.18004 349.13928,375.15004 348.83928,375.16004 348.63928,375.23004 348.43928,375.30004 348.23928,375.50004 347.93928,375.83004 347.63928,376.13004 347.43928,376.30004 347.23928,376.33004 347.03928,376.36004 346.83928,376.23004 346.53928,375.93004 346.13928,375.56004 345.93928,375.36004 345.83928,375.33004 345.53928,375.20004 345.03928,375.10004 344.43928,375.03004 343.83928,374.96004 343.33928,374.88004 343.13928,374.78004 343.03928,374.31004 342.93928,373.88004 342.83928,373.48004 343.13928,373.55004 343.73928,373.78004 344.53928,374.18004 345.23928,374.55004 345.83928,374.76004 346.33928,374.83004 346.03928,374.40004 345.53928,373.93004 344.93928,373.43004 344.13928,372.90004 343.53928,372.51004 343.13928,372.28004 L 346.83928,373.63004 C 348.63928,374.30004 349.53928,374.75004 349.63928,374.98004 z"
                         id="path158"
                         inkscape:connector-curvature="0" />
                    <path
                         style="fill:#52404d;fill-rule:evenodd;stroke:none"
                         d="M 351.03928,376.03004 C 351.03928,376.16004 351.33928,376.30004 351.83928,376.43004 352.43928,376.60004 352.83928,376.75004 352.93928,376.88004 352.43928,377.08004 351.93928,377.13004 351.33928,377.03004 350.63928,376.90004 350.03928,376.81004 349.63928,376.78004 349.53928,376.78004 348.43928,376.83004 346.43928,376.93004 345.03928,377.03004 344.03928,376.88004 343.53928,376.48004 343.83928,376.38004 344.23928,376.20004 344.73928,375.93004 345.13928,375.76004 345.53928,375.73004 345.93928,375.83004 345.73928,375.50004 345.33928,375.16004 344.93928,374.83004 344.23928,374.33004 343.83928,374.03004 343.73928,373.93004 344.63928,374.50004 346.23928,375.25004 348.33928,376.18004 347.83928,375.37004 347.43928,374.75004 347.23928,374.33004 347.53928,374.80004 348.03928,375.19004 348.93928,375.48004 349.43928,375.65004 350.13928,375.83004 351.03928,376.03004 z"
                         id="path160"
                         inkscape:connector-curvature="0" />
                </g>
                <g
                     style="stroke:none"
                     id="g4838"
                     transform="translate(0,-60)">
                    <path
                         style="fill:#ebdbad;fill-rule:evenodd;stroke:none"
                         d="M 289.93928,419.33004 C 290.63928,418.73004 292.83928,418.50004 296.43928,418.63004 303.93928,418.93004 307.73928,419.08004 307.93928,419.08004 310.33928,419.08004 314.13928,418.95004 319.33928,418.68004 322.93928,418.51004 325.23928,418.53004 326.23928,418.73004 327.63928,419.03004 328.53928,420.00004 328.83928,421.63004 328.93928,422.60004 329.13928,424.41004 329.33928,427.08004 329.63928,428.35004 330.13928,430.50004 330.83928,433.53004 331.23928,436.00004 331.03928,437.41004 330.23928,437.78004 329.53928,438.15004 327.13928,438.26004 322.93928,438.13004 315.43928,437.90004 310.83928,437.78004 309.13928,437.78004 301.83928,437.88004 296.63928,437.95004 293.53928,437.98004 288.23928,438.01004 285.13928,437.85004 284.43928,437.48004 283.63928,437.11004 283.63928,436.01004 284.23928,434.18004 285.33928,431.78004 286.13928,429.91004 286.63928,428.58004 287.53928,426.24004 288.33928,423.96004 288.93928,421.73004 289.23928,420.40004 289.63928,419.60004 289.93928,419.33004 z"
                         id="path164"
                         inkscape:connector-curvature="0" />
                    <path
                         style="fill:#f7e6b7;fill-rule:evenodd;stroke:none"
                         d="M 298.33928,421.18004 298.43928,420.88004 C 298.73928,421.08004 299.23928,421.36004 300.03928,421.73004 300.03928,421.30004 299.93928,421.00004 299.93928,420.83004 300.53928,421.03004 301.03928,421.46004 301.43928,422.13004 L 301.53928,421.83004 C 302.23928,422.30004 303.03928,422.68004 303.73928,422.98004 304.03928,422.65004 304.13928,422.23004 304.13928,421.73004 304.13928,421.56004 304.03928,421.13004 303.83928,420.43004 304.83928,420.93004 305.93928,421.58004 307.13928,422.38004 307.13928,422.18004 307.13928,421.95004 307.23928,421.68004 307.33928,421.35004 307.43928,421.13004 307.43928,421.03004 H 308.03928 L 308.33928,421.78004 C 308.73928,421.61004 309.43928,421.46004 310.33928,421.33004 311.23928,421.16004 311.93928,421.00004 312.33928,420.83004 312.13928,421.26004 312.03928,421.58004 311.93928,421.78004 312.43928,421.61004 314.93928,421.01004 319.33928,419.98004 318.33928,420.81004 317.73928,421.33004 317.53928,421.53004 317.83928,421.50004 319.03928,421.28004 321.23928,420.88004 322.83928,420.55004 324.13928,420.46004 325.13928,420.63004 324.93928,420.90004 324.53928,421.21004 324.03928,421.58004 323.33928,422.08004 322.93928,422.35004 322.83928,422.38004 323.53928,422.08004 324.53928,421.90004 325.73928,421.83004 325.33928,422.46004 325.13928,422.83004 325.03928,422.93004 324.83928,423.33004 324.73928,423.73004 324.73928,424.13004 324.93928,424.13004 325.13928,424.20004 325.43928,424.33004 325.63928,424.43004 325.73928,424.46004 326.03928,424.43004 325.33928,424.93004 324.83928,425.25004 324.53928,425.38004 324.53928,425.41004 324.73928,425.51004 325.03928,425.68004 325.33928,425.82004 325.53928,425.90004 325.73928,425.93004 325.53928,426.07004 325.13928,426.20004 324.53928,426.33004 324.03928,426.43004 323.63928,426.58004 323.43928,426.78004 324.83928,428.21004 325.93928,429.13004 326.63928,429.53004 325.83928,429.60004 325.33928,429.61004 325.03928,429.58004 L 325.93928,430.13004 C 325.73928,430.07004 325.03928,430.00004 323.93928,429.93004 325.73928,431.16004 327.23928,432.46004 328.33928,433.83004 326.63928,432.93004 324.83928,432.45004 322.93928,432.38004 323.03928,432.58004 323.13928,432.90004 323.23928,433.33004 322.83928,433.33004 322.23928,433.26004 321.43928,433.13004 320.63928,433.00004 320.03928,432.95004 319.63928,432.98004 L 319.93928,433.48004 C 319.23928,433.25004 318.63928,433.08004 318.23928,432.98004 317.53928,432.78004 316.93928,432.71004 316.43928,432.78004 L 316.33928,433.53004 C 315.83928,433.33004 315.23928,433.30004 314.63928,433.43004 313.83928,433.63004 313.43928,433.73004 313.33928,433.73004 312.93928,433.70004 312.43928,433.57004 311.83928,433.33004 311.13928,433.03004 310.63928,432.85004 310.43928,432.78004 310.13928,433.35004 309.93928,433.98004 309.93928,434.68004 308.83928,434.08004 308.03928,433.45004 307.43928,432.78004 307.43928,432.98004 307.33928,433.36004 307.13928,433.93004 306.23928,433.70004 305.73928,433.51004 305.43928,433.38004 L 305.43928,433.93004 C 304.53928,433.53004 303.53928,433.28004 302.23928,433.18004 301.03928,433.05004 300.03928,433.10004 299.03928,433.33004 299.13928,433.23004 299.23928,433.11004 299.23928,432.98004 298.23928,433.15004 297.43928,433.26004 296.93928,433.33004 295.93928,433.46004 295.13928,433.55004 294.53928,433.58004 295.33928,432.88004 295.83928,432.48004 295.93928,432.38004 292.83928,433.25004 290.53928,433.83004 289.03928,434.13004 289.53928,433.76004 290.73928,433.03004 292.73928,431.93004 292.23928,431.96004 291.43928,432.16004 290.13928,432.53004 289.03928,432.83004 288.13928,432.96004 287.53928,432.93004 288.03928,432.57004 288.83928,432.07004 290.03928,431.43004 291.13928,430.83004 291.93928,430.35004 292.33928,429.98004 L 291.33928,429.93004 C 292.43928,429.43004 293.03928,429.11004 293.23928,428.98004 292.93928,428.98004 292.33928,429.03004 291.53928,429.13004 290.83928,429.20004 290.23928,429.20004 289.83928,429.13004 290.73928,428.53004 291.93928,427.88004 293.43928,427.18004 292.03928,426.11004 291.93928,425.43004 293.13928,425.13004 292.63928,424.73004 292.23928,424.50004 291.93928,424.43004 L 292.93928,424.33004 C 292.73928,423.76004 292.03928,423.45004 290.93928,423.38004 291.43928,423.08004 292.23928,422.93004 293.23928,422.93004 293.03928,422.83004 292.93928,422.73004 292.83928,422.63004 294.03928,422.83004 294.63928,422.95004 294.63928,422.98004 294.43928,422.65004 294.03928,422.26004 293.53928,421.83004 292.83928,421.30004 292.33928,420.97004 292.23928,420.83004 292.43928,420.87004 293.23928,421.03004 294.73928,421.33004 295.73928,421.57004 296.63928,421.65004 297.23928,421.58004 297.13928,421.45004 296.93928,421.32004 296.63928,421.18004 296.43928,421.05004 296.23928,420.98004 296.23928,420.98004 V 420.58004 L 298.33928,421.18004 z"
                         id="path166"
                         inkscape:connector-curvature="0" />
                    <polygon
                         transform="translate(178.93928,359.18004)"
                         id="polygon170"
                         points="111.2,60.35 110.8,60.35 110.9,60.25 "
                         style="fill:#d1c299;fill-rule:evenodd;stroke:none" />
                    <path
                         inkscape:connector-curvature="0"
                         id="path172"
                         d="M 288.83928,422.03004 C 289.23928,420.63004 289.53928,419.80004 289.73928,419.53004 290.13928,419.86004 290.73928,420.38004 291.53928,421.08004 290.43928,421.05004 289.73928,421.58004 289.33928,422.68004 289.13928,423.28004 288.93928,424.16004 288.63928,425.33004 288.83928,425.33004 289.13928,425.35004 289.53928,425.38004 289.93928,425.45004 290.13928,425.46004 290.33928,425.43004 289.43928,425.93004 288.43928,426.76004 287.33928,427.93004 287.53928,427.93004 287.83928,428.00004 288.33928,428.13004 287.63928,429.07004 287.23928,429.93004 287.03928,430.73004 287.13928,430.73004 287.43928,430.76004 287.83928,430.83004 288.13928,430.86004 288.43928,430.86004 288.53928,430.83004 287.83928,431.46004 287.33928,431.95004 286.93928,432.28004 286.33928,432.85004 285.83928,433.38004 285.43928,433.88004 286.03928,433.78004 286.33928,433.73004 286.33928,433.73004 285.63928,434.40004 285.13928,435.05004 284.83928,435.68004 L 287.93928,434.58004 C 287.83928,434.68004 287.73928,435.03004 287.63928,435.63004 287.53928,436.20004 287.53928,436.53004 287.43928,436.63004 288.13928,436.90004 288.93928,436.71004 289.73928,436.08004 290.83928,435.32004 291.63928,434.91004 292.13928,434.88004 291.63928,435.51004 291.33928,435.93004 291.03928,436.13004 291.23928,436.10004 292.33928,435.90004 294.43928,435.53004 L 294.43928,436.13004 C 297.33928,435.57004 299.53928,435.48004 301.13928,435.88004 301.13928,435.35004 301.13928,434.95004 300.93928,434.68004 302.23928,435.08004 303.73928,435.41004 305.63928,435.68004 305.73928,435.55004 305.73928,435.41004 305.63928,435.28004 305.63928,435.28004 306.53928,435.55004 308.33928,436.08004 308.43928,435.95004 308.43928,435.77004 308.43928,435.53004 308.83928,435.53004 309.53928,435.50004 310.43928,435.43004 311.33928,435.46004 311.93928,435.63004 312.43928,435.93004 312.33928,435.53004 312.33928,435.25004 312.23928,435.08004 312.63928,435.11004 313.43928,435.25004 314.63928,435.48004 315.63928,435.68004 316.43928,435.75004 317.03928,435.68004 317.43928,435.01004 320.43928,435.11004 326.23928,435.98004 325.73928,435.75004 325.23928,435.23004 324.73928,434.43004 325.33928,434.33004 325.93928,434.38004 326.63928,434.58004 327.33928,434.78004 327.93928,435.06004 328.33928,435.43004 328.43928,434.93004 328.43928,434.60004 328.43928,434.43004 329.13928,434.80004 329.63928,434.98004 330.03928,434.98004 330.53928,434.95004 330.53928,434.61004 330.03928,433.98004 L 330.83928,433.73004 C 331.13928,436.07004 330.93928,437.41004 330.23928,437.78004 329.53928,438.15004 327.03928,438.26004 322.83928,438.13004 315.33928,437.90004 310.83928,437.78004 309.13928,437.78004 301.83928,437.88004 296.63928,437.95004 293.53928,437.98004 288.23928,438.01004 285.13928,437.85004 284.43928,437.48004 283.63928,437.11004 283.63928,436.01004 284.23928,434.18004 285.33928,431.78004 286.13928,429.91004 286.63928,428.58004 287.63928,426.31004 288.33928,424.13004 288.83928,422.03004 z"
                         style="fill:#d1c299;fill-rule:evenodd;stroke:none" />
                    <path
                         inkscape:connector-curvature="0"
                         id="path174"
                         d="M 328.83928,421.93004 328.93928,424.33004 C 329.03928,425.40004 329.13928,426.31004 329.33928,427.08004 330.33928,431.25004 330.83928,433.45004 330.83928,433.68004 330.43928,432.81004 329.63928,432.06004 328.23928,431.43004 328.53928,431.46004 328.93928,431.46004 329.43928,431.43004 328.33928,430.66004 327.73928,429.93004 327.73928,429.23004 328.13928,429.23004 328.73928,429.05004 329.43928,428.68004 328.33928,427.45004 327.43928,426.60004 326.63928,426.13004 326.93928,426.23004 327.43928,426.28004 328.13928,426.28004 328.03928,426.11004 327.93928,425.88004 327.93928,425.58004 327.83928,425.25004 327.73928,425.05004 327.73928,424.98004 L 328.63928,424.93004 C 328.43928,424.10004 328.23928,423.51004 328.03928,423.18004 328.23928,422.88004 328.53928,422.46004 328.83928,421.93004 z"
                         style="fill:#d1c299;fill-rule:evenodd;stroke:none" />
                    <path
                         inkscape:connector-curvature="0"
                         id="path176"
                         d="M 328.33928,420.13004 C 327.93928,419.86004 327.63928,419.66004 327.23928,419.53004 L 327.63928,419.33004 C 327.93928,419.53004 328.13928,419.80004 328.33928,420.13004 z"
                         style="fill:#d1c299;fill-rule:evenodd;stroke:none" />
                    <path
                         style="fill:#ddcda2;fill-rule:evenodd;stroke:none"
                         d="M 289.73928,434.58004 C 289.23928,435.05004 288.93928,435.50004 288.63928,435.93004 290.83928,434.86004 292.43928,434.28004 293.53928,434.18004 293.43928,434.31004 293.23928,434.56004 293.13928,434.93004 293.03928,435.33004 292.93928,435.58004 292.93928,435.68004 293.33928,435.75004 293.93928,435.71004 294.63928,435.58004 295.43928,435.38004 295.93928,435.28004 296.23928,435.28004 296.43928,435.28004 297.03928,435.36004 297.93928,435.53004 298.63928,435.66004 299.23928,435.65004 299.83928,435.48004 300.03928,435.01004 300.43928,434.45004 301.23928,433.78004 301.93928,434.71004 304.13928,435.50004 307.83928,436.13004 307.73928,436.00004 307.73928,435.78004 307.73928,435.48004 307.63928,435.18004 307.53928,434.98004 307.53928,434.88004 308.93928,435.38004 310.63928,435.61004 312.73928,435.58004 315.33928,435.51004 316.93928,435.55004 317.83928,435.68004 317.73928,435.05004 317.63928,434.55004 317.43928,434.18004 318.33928,434.05004 319.43928,434.18004 320.83928,434.58004 321.63928,434.81004 322.73928,435.18004 324.13928,435.68004 324.03928,435.31004 323.93928,434.85004 323.73928,434.28004 323.43928,433.68004 323.33928,433.20004 323.33928,432.83004 325.73928,433.60004 327.23928,434.16004 327.93928,434.53004 327.73928,433.93004 327.63928,433.51004 327.53928,433.28004 328.43928,433.31004 329.03928,433.53004 329.53928,433.93004 330.03928,434.43004 330.23928,435.10004 329.93928,435.93004 329.43928,436.03004 328.83928,435.96004 328.13928,435.73004 327.33928,435.46004 326.73928,435.33004 326.43928,435.33004 326.43928,435.46004 326.53928,435.73004 326.53928,436.13004 325.73928,436.46004 324.63928,436.58004 323.13928,436.48004 321.13928,436.38004 320.03928,436.35004 319.63928,436.38004 318.23928,436.58004 317.13928,436.71004 316.43928,436.78004 315.33928,436.88004 314.33928,436.88004 313.33928,436.78004 310.83928,436.61004 308.73928,436.56004 307.03928,436.63004 306.03928,436.66004 305.13928,436.53004 304.43928,436.23004 303.43928,435.83004 302.63928,435.51004 301.93928,435.28004 301.93928,435.55004 301.93928,435.98004 301.83928,436.58004 297.13928,436.85004 293.63928,436.93004 291.33928,436.83004 291.23928,436.33004 291.23928,435.98004 291.33928,435.78004 290.73928,435.75004 289.83928,436.03004 288.83928,436.63004 287.83928,437.20004 286.93928,437.41004 286.23928,437.28004 286.23928,437.18004 286.23928,436.88004 286.33928,436.38004 286.33928,436.01004 286.43928,435.73004 286.53928,435.53004 286.43928,435.51004 286.33928,435.51004 286.13928,435.51004 287.33928,434.95004 288.93928,434.29004 291.13928,433.53004 290.53928,434.00004 290.13928,434.35004 289.73928,434.58004 z M 286.13928,435.50004 C 285.83928,435.65004 285.53928,435.79004 285.23928,435.93004 L 285.43928,435.48004 C 285.73928,435.48004 285.93928,435.49004 286.13928,435.50004 z"
                         id="path178"
                         inkscape:connector-curvature="0" />
                    <path
                         style="fill:#b8aa87;fill-rule:evenodd;stroke:none"
                         d="M 289.33928,436.88004 C 290.23928,436.01004 290.83928,435.51004 291.13928,435.38004 290.63928,435.91004 290.43928,436.56004 290.43928,437.33004 L 292.13928,437.28004 C 293.13928,437.25004 294.13928,437.25004 295.13928,437.28004 296.53928,437.18004 298.53928,436.75004 301.23928,435.98004 L 301.03928,435.13004 C 302.93928,436.10004 305.33928,436.88004 308.13928,437.48004 L 308.43928,436.88004 C 309.03928,436.85004 309.83928,436.86004 310.93928,436.93004 312.23928,437.03004 313.03928,437.08004 313.53928,437.08004 314.03928,437.08004 314.73928,437.06004 315.73928,437.03004 316.63928,437.03004 317.33928,437.06004 317.93928,437.13004 L 318.43928,437.08004 318.13928,436.43004 C 318.63928,436.36004 319.13928,436.40004 319.83928,436.53004 320.23928,436.63004 320.83928,436.80004 321.63928,437.03004 323.73928,437.03004 325.03928,436.61004 325.53928,435.78004 H 326.13928 C 325.73928,435.15004 325.53928,434.78004 325.53928,434.68004 326.73928,435.28004 327.93928,435.98004 329.13928,436.78004 329.83928,436.58004 330.43928,436.23004 330.83928,435.73004 V 436.08004 L 330.93928,435.98004 C 330.93928,436.95004 330.73928,437.55004 330.23928,437.78004 329.53928,438.15004 327.13928,438.26004 322.83928,438.13004 315.33928,437.90004 310.83928,437.78004 309.13928,437.78004 L 297.93928,437.88004 C 295.13928,438.05004 293.33928,438.13004 292.63928,438.13004 290.63928,438.20004 288.93928,438.13004 287.53928,437.93004 L 287.63928,437.88004 C 286.03928,437.85004 284.93928,437.71004 284.43928,437.48004 283.73928,437.15004 283.63928,436.21004 284.13928,434.68004 284.03928,435.85004 284.23928,436.68004 284.73928,437.18004 285.23928,437.78004 286.13928,437.83004 287.23928,437.33004 L 287.23928,437.73004 C 287.93928,437.80004 288.63928,437.51004 289.33928,436.88004 z"
                         id="path180"
                         inkscape:connector-curvature="0" />
                    <path
                         inkscape:connector-curvature="0"
                         id="path184"
                         d="M 298.43928,419.23004 C 296.73928,419.10004 295.33928,419.06004 294.23928,419.13004 294.23928,419.23004 294.33928,419.45004 294.43928,419.78004 293.93928,419.55004 293.23928,419.36004 292.43928,419.23004 291.43928,419.00004 290.73928,418.96004 290.23928,419.13004 291.13928,418.66004 293.43928,418.51004 296.93928,418.68004 303.33928,418.95004 307.03928,419.08004 307.93928,419.08004 310.33928,419.08004 314.13928,418.94004 319.33928,418.68004 322.93928,418.51004 325.23928,418.53004 326.23928,418.73004 327.53928,419.03004 328.33928,419.75004 328.63928,420.88004 V 421.33004 C 327.93928,421.16004 327.23928,421.16004 326.43928,421.33004 326.83928,421.10004 327.53928,420.85004 328.43928,420.58004 L 328.23928,420.03004 C 327.83928,420.06004 327.33928,419.98004 326.83928,419.78004 326.13928,419.54004 325.73928,419.41004 325.53928,419.38004 324.93928,419.31004 323.73928,419.43004 321.93928,419.73004 L 322.53928,419.13004 C 320.73928,419.03004 318.73928,419.04004 316.43928,419.18004 315.63928,419.21004 313.63928,419.38004 310.43928,419.68004 310.53928,419.61004 310.53928,419.53004 310.53928,419.43004 305.83928,419.53004 303.23928,419.56004 302.63928,419.53004 302.23928,419.53004 300.83928,419.43004 298.43928,419.23004 z"
                         style="fill:#d1c299;fill-rule:evenodd;stroke:none" />
                </g>
            </g>
            <path
                 inkscape:connector-curvature="0"
                 style="opacity:0.14839998;fill-rule:evenodd;stroke:#ff1717;stroke-width:0.5;stroke-miterlimit:4;stroke-opacity:1;stroke-dasharray:none"
                 d="M 426.93528,456.05004 C 427.53528,457.55004 427.88528,458.83404 427.98528,459.90004 426.88528,460.16704 423.75228,460.18304 418.58528,459.95004 L 411.18528,459.55004 H 215.43528 L 215.33528,459.90004 C 207.33528,460.76704 200.66828,460.98304 195.33528,460.55004 191.66828,460.25004 187.33528,460.13304 182.33528,460.20004 182.16828,459.36704 182.38528,458.18304 182.98528,456.65004 184.15228,453.55004 186.60228,450.23304 190.33528,446.70004 192.83528,444.33304 196.58528,442.56704 201.58528,441.40004 L 202.03528,440.95004 H 204.08528 C 209.31828,440.08304 215.23528,439.91604 221.83528,440.45004 229.06828,440.21704 239.23528,439.83304 252.33528,439.30004 263.40228,438.93304 273.06828,438.90004 281.33528,439.20004 290.33528,439.53304 305.31828,440.13304 326.28528,441.00004 346.58528,441.53304 367.21828,441.38304 388.18528,440.55004 390.21828,440.48404 393.08528,440.45004 396.78528,440.45004 400.25228,440.45004 402.73528,440.40004 404.23528,440.30004 405.86828,440.00004 408.35228,440.58404 411.68528,442.05004 415.25228,443.61704 418.46828,445.66704 421.33528,448.20004 423.83528,450.43304 425.70228,453.05004 426.93528,456.05004 z"
                 id="path3478" />
            <g
                 transform="translate(-300,-60)"
                 style="stroke:none"
                 id="g5436">
                <rect
                     x="479.1893"
                     y="520.58002"
                     style="fill:#6593ab;fill-rule:evenodd;stroke:none"
                     width="253"
                     height="15"
                     id="rect196" />
                <path
                     inkscape:connector-curvature="0"
                     id="path200"
                     d="M 534.18928,530.78004 C 532.35928,531.28004 530.23928,532.08004 527.83928,533.08004 523.00928,535.08004 519.11928,537.28004 516.18928,539.78004 513.28928,542.28004 511.58928,544.88004 511.08928,547.58004 510.81928,548.88004 510.85928,549.98004 511.18928,550.78004 H 500.18928 L 497.18928,531.78004 534.18928,530.78004 z"
                     style="fill:#6593ab;fill-rule:evenodd;stroke:none" />
                <path
                     inkscape:connector-curvature="0"
                     id="path202"
                     d="M 521.63928,535.78004 C 523.20928,535.78004 524.65928,535.88004 525.98928,536.18004 L 511.18928,550.78004 C 510.21928,550.18004 509.66928,549.28004 509.53928,547.88004 509.23928,545.08004 511.16928,541.58004 515.33928,537.48004 516.43928,536.38004 518.53928,535.78004 521.63928,535.78004 z"
                     style="fill:#4b6e80;fill-rule:evenodd;stroke:none" />
                <polygon
                     id="polygon204"
                     points="18.4,136.2 40.05,136.2 34.05,141.6 20.05,141.6 "
                     style="fill:#4c7082;fill-rule:evenodd;stroke:none"
                     transform="translate(478.93928,399.18004)" />
                <polygon
                     id="polygon206"
                     points="18.4,136.2 40.05,136.2 37.05,138.9 19.05,138.6 "
                     style="fill:#3d5a69;fill-rule:evenodd;stroke:none"
                     transform="translate(478.93928,399.18004)" />
                <path
                     inkscape:connector-curvature="0"
                     id="path208"
                     d="M 526.68928,535.78004 C 524.68928,537.78004 523.11928,539.08004 521.98928,539.78004 521.28928,540.18004 519.13928,541.18004 515.53928,542.68004 L 510.33928,544.78004 511.13928,542.88004 C 511.86928,541.38004 512.71928,540.28004 513.68928,539.48004 515.21928,538.08004 516.98928,536.78004 518.98928,535.48004 L 526.68928,535.78004 z"
                     style="fill:#415e6e;fill-rule:evenodd;stroke:none" />
                <path
                     inkscape:connector-curvature="0"
                     id="path210"
                     d="M 500.18928,550.78004 499.33928,544.78004 500.33928,545.98004 C 501.20928,546.78004 502.20928,547.18004 503.33928,547.18004 505.10928,547.18004 507.43928,546.38004 510.33928,544.78004 L 511.18928,550.78004 H 500.18928 z"
                     style="fill:#5d879e;fill-rule:evenodd;stroke:none" />
                <path
                     inkscape:connector-curvature="0"
                     id="path212"
                     d="M 516.18928,539.78004 C 515.28928,539.88004 514.35928,540.08004 513.38928,540.58004 511.48928,541.48004 510.46928,542.88004 510.33928,544.78004 510.20928,546.68004 510.30928,548.28004 510.63928,549.58004 510.80928,550.18004 510.98928,550.58004 511.18928,550.78004 510.55928,550.78004 509.93928,550.58004 509.33928,550.18004 508.16928,549.28004 507.71928,547.68004 507.98928,545.48004 508.25928,543.28004 509.70928,541.68004 512.33928,540.68004 513.63928,540.18004 514.91928,539.88004 516.18928,539.78004 z"
                     style="fill:#73a6bf;fill-rule:evenodd;stroke:none" />
                <path
                     inkscape:connector-curvature="0"
                     id="path216"
                     d="M 683.63928,533.08004 677.23928,530.78004 714.23928,531.78004 711.23928,550.78004 H 700.23928 C 700.53928,549.98004 700.53928,548.88004 700.33928,547.58004 699.83928,544.88004 698.13928,542.28004 695.23928,539.78004 692.33928,537.28004 688.43928,535.08004 683.63928,533.08004 z"
                     style="fill:#6593ab;fill-rule:evenodd;stroke:none" />
                <path
                     inkscape:connector-curvature="0"
                     id="path218"
                     d="M 700.23928,550.78004 685.33928,536.18004 689.73928,535.78004 C 692.83928,535.78004 694.93928,536.28004 696.03928,537.38004 700.13928,541.58004 702.13928,545.08004 701.83928,547.88004 701.73928,549.28004 701.13928,550.18004 700.23928,550.78004 z"
                     style="fill:#4b6e80;fill-rule:evenodd;stroke:none" />
                <polygon
                     id="polygon220"
                     points="219.4,141.6 213.4,136.2 235.1,136.2 233.4,141.6 "
                     style="fill:#4c7082;fill-rule:evenodd;stroke:none"
                     transform="translate(478.93928,399.18004)" />
                <polygon
                     id="polygon222"
                     points="216.4,138.9 213.4,136.2 235.1,136.2 234.4,138.6 "
                     style="fill:#3d5a69;fill-rule:evenodd;stroke:none"
                     transform="translate(478.93928,399.18004)" />
                <path
                     inkscape:connector-curvature="0"
                     id="path224"
                     d="M 701.03928,544.78004 C 694.33928,542.08004 690.43928,540.48004 689.33928,539.78004 688.63928,539.38004 687.63928,538.58004 686.43928,537.48004 L 684.73928,535.78004 692.33928,535.48004 694.13928,536.68004 C 695.53928,537.68004 696.73928,538.58004 697.73928,539.48004 699.23928,540.78004 700.33928,542.58004 701.03928,544.78004 z"
                     style="fill:#415e6e;fill-rule:evenodd;stroke:none" />
                <path
                     inkscape:connector-curvature="0"
                     id="path226"
                     d="M 711.23928,550.78004 H 700.23928 L 701.03928,544.78004 703.53928,545.98004 C 705.43928,546.78004 706.93928,547.18004 708.03928,547.18004 709.13928,547.18004 710.13928,546.78004 711.03928,545.98004 711.43928,545.58004 711.83928,545.18004 712.03928,544.78004 L 711.23928,550.78004 z"
                     style="fill:#5d879e;fill-rule:evenodd;stroke:none" />
                <path
                     inkscape:connector-curvature="0"
                     id="path228"
                     d="M 695.23928,539.78004 699.03928,540.68004 C 701.63928,541.68004 703.03928,543.28004 703.33928,545.48004 703.63928,547.68004 703.13928,549.28004 701.93928,550.18004 L 700.13928,550.78004 C 700.33928,550.58004 700.53928,550.18004 700.73928,549.58004 701.03928,548.28004 701.13928,546.68004 700.93928,544.78004 700.83928,542.88004 699.83928,541.48004 697.93928,540.58004 L 695.23928,539.78004 z"
                     style="fill:#73a6bf;fill-rule:evenodd;stroke:none" />
                <path
                     style="fill:#6b9cb5;fill-rule:evenodd;stroke:none"
                     d="M 732.23928,524.68004 C 709.63928,522.88004 688.03928,521.58004 667.33928,520.68004 H 732.23928 V 524.68004 z M 479.18928,520.68004 H 524.33928 C 508.37928,521.58004 493.32928,522.88004 479.18928,524.68004 V 520.68004 z"
                     id="path230"
                     inkscape:connector-curvature="0" />
                <rect
                     x="479.1893"
                     y="520.18005"
                     style="fill:#a0d4ed;fill-rule:evenodd;stroke:none"
                     width="253"
                     height="1.55"
                     id="rect232" />
                <rect
                     x="479.1893"
                     y="527.58002"
                     style="fill:#608da3;fill-rule:evenodd;stroke:none"
                     width="253"
                     height="8"
                     id="rect234" />
                <rect
                     x="479.1893"
                     y="531.58002"
                     style="fill:#598296;fill-rule:evenodd;stroke:none"
                     width="253"
                     height="4"
                     id="rect236" />
                <path
                     style="fill:#8ec2db;fill-rule:evenodd;stroke:none"
                     d="M 728.03928,518.18004 732.23928,520.18004 H 479.18928 L 482.33928,518.38004 484.98928,518.28004 C 487.32228,518.18004 489.88928,518.18004 492.68928,518.18004 497.11928,518.18004 511.11928,518.38004 534.68928,518.78004 L 595.33928,516.78004 C 605.13928,516.48004 618.53928,516.18004 635.43928,515.88004 651.93928,515.58004 664.13928,515.48004 672.03928,515.48004 678.43928,515.48004 689.63928,515.88004 705.73928,516.78004 713.83928,517.28004 721.23928,517.68004 728.03928,518.18004 z"
                     id="path238"
                     inkscape:connector-curvature="0" />
                <path
                     style="fill:#415e6e;fill-rule:evenodd;stroke:none"
                     d="M 521.68928,535.18004 C 523.25928,535.18004 524.70928,535.28004 526.03928,535.58004 L 511.23928,550.18004 C 510.26928,549.58004 509.71928,548.68004 509.58928,547.28004 509.28928,544.48004 511.21928,540.98004 515.38928,536.88004 516.48928,535.78004 518.58928,535.18004 521.68928,535.18004 z"
                     id="path240"
                     inkscape:connector-curvature="0" />
                <path
                     style="fill:#415e6e;fill-rule:evenodd;stroke:none"
                     d="M 700.23928,550.18004 685.43928,535.58004 689.73928,535.18004 C 692.83928,535.18004 694.93928,535.78004 696.03928,536.88004 700.23928,540.98004 702.13928,544.48004 701.93928,547.28004 701.73928,548.68004 701.23928,549.58004 700.23928,550.18004 z"
                     id="path242"
                     inkscape:connector-curvature="0" />
                <path
                     style="fill:#38505e;fill-rule:evenodd;stroke:none"
                     d="M 526.93928,535.88004 C 524.93928,537.88004 523.36928,539.18004 522.23928,539.88004 521.53928,540.28004 519.38928,541.28004 515.78928,542.78004 L 510.58928,544.88004 511.38928,542.98004 C 512.11928,541.48004 512.96928,540.38004 513.93928,539.58004 515.46928,538.18004 517.23928,536.88004 519.23928,535.58004 L 526.93928,535.88004 z"
                     id="path244"
                     inkscape:connector-curvature="0" />
                <path
                     style="fill:#38505e;fill-rule:evenodd;stroke:none"
                     d="M 701.23928,544.88004 C 694.53928,542.18004 690.73928,540.58004 689.63928,539.88004 688.93928,539.48004 687.93928,538.68004 686.63928,537.48004 L 684.93928,535.88004 692.63928,535.48004 694.43928,536.78004 C 695.73928,537.78004 696.93928,538.68004 697.93928,539.48004 699.43928,540.88004 700.53928,542.68004 701.23928,544.88004 z"
                     id="path246"
                     inkscape:connector-curvature="0" />
                <polygon
                     style="fill:#2e434f;fill-rule:evenodd;stroke:none"
                     points="37.65,137.1 47.3,137.1 45,139.6 32.65,142.4 "
                     id="polygon248"
                     transform="translate(478.93928,399.18004)" />
                <polygon
                     style="fill:#2e434f;fill-rule:evenodd;stroke:none"
                     points="221,142.6 207.3,138.2 206,136.7 217,136.9 "
                     id="polygon250"
                     transform="translate(478.93928,399.18004)" />
            </g>
            <g
                 id="g5486">
                <path
                     id="path3600"
                     d="M 253.83928,410.23004 V 411.43004 C 250.00628,411.89604 247.52328,412.88004 246.38928,414.38004 246.62228,414.58004 246.95528,414.76304 247.38928,414.93004 245.12228,415.69704 243.78928,416.68004 243.38928,417.88004 245.28928,417.91304 248.52228,418.24704 253.08928,418.88004 257.18928,419.41304 260.42228,419.64704 262.78928,419.58004 259.08928,421.11304 253.57228,422.14604 246.23928,422.68004 235.50628,423.41304 229.75628,423.83004 228.98928,423.93004 230.22228,424.29704 232.15628,424.46304 234.78928,424.43004 237.42228,424.39604 239.27228,424.53004 240.33928,424.83004 238.73928,425.33004 236.42228,425.73004 233.38928,426.03004 230.12228,426.39704 227.80628,426.74704 226.43928,427.08004 224.07228,427.74704 222.27228,428.24704 221.03928,428.58004 218.83928,429.18004 216.98928,429.51304 215.48928,429.58004 216.35628,429.84704 217.45628,429.98004 218.78928,429.98004 218.88928,429.98004 220.02228,429.96304 222.18928,429.93004 221.08928,430.23004 220.38928,430.39604 220.08928,430.43004 224.08928,430.46304 228.62228,430.63004 233.68928,430.93004 235.98928,431.06304 240.48928,431.39604 247.18928,431.93004 238.82228,431.93004 231.70628,432.16304 225.83928,432.63004 218.10628,433.26304 211.15628,434.38004 204.98928,435.98004 209.22228,435.91304 212.15628,435.94704 213.78928,436.08004 212.85528,436.61304 211.52228,437.01304 209.78928,437.28004 207.85528,437.54704 206.42228,437.78004 205.48928,437.98004 207.62228,437.94704 210.55628,438.14704 214.28928,438.58004 212.88928,439.41304 210.53928,439.93004 207.23928,440.13004 203.13928,440.36304 200.63928,440.59704 199.73928,440.83004 196.87228,441.56304 194.35628,442.36304 192.18928,443.23004 194.42228,441.26304 197.05628,439.21304 200.08928,437.08004 202.98928,434.98004 204.50628,433.88004 204.63928,433.78004 205.43928,433.04704 209.83928,430.76304 217.83928,426.93004 221.83928,425.03004 225.75628,423.19704 229.58928,421.43004 V 421.48004 C 234.48928,418.81304 238.97228,416.48004 243.03928,414.48004 247.10528,412.48004 249.82228,411.24704 251.18928,410.78004 251.55628,410.64704 252.43928,410.46304 253.83928,410.23004 z"
                     style="opacity:0.14839998;fill-rule:evenodd;stroke:none"
                     inkscape:connector-curvature="0" />
                <path
                     id="path3472"
                     d="M 394.63868,430.92914 C 392.03868,429.09614 389.22168,427.52914 386.18868,426.22914 382.62268,424.72914 379.50568,423.96214 376.83868,423.92914 L 377.73868,422.67914 C 375.77168,421.91214 373.43868,421.34614 370.73868,420.97914 368.20468,420.61214 365.77168,420.47914 363.43868,420.57914 364.00568,420.41214 364.95568,420.14614 366.28868,419.77914 367.42168,419.44614 368.27168,419.04614 368.83868,418.57914 366.20568,417.54614 362.40568,417.16214 357.43868,417.42914 349.53868,417.86214 345.57168,418.07914 345.53868,418.07914 347.80568,417.34614 350.78868,416.87914 354.48868,416.67914 360.08868,416.37914 363.10568,416.19614 363.53868,416.12914 364.03868,416.59614 364.47168,416.87914 364.83868,416.97914 365.17168,417.04514 365.80568,417.04514 366.73868,416.97914 365.90568,415.24614 364.42168,413.61214 362.28868,412.07914 360.42168,410.71214 358.43868,409.66214 356.33868,408.92914 L 356.38868,408.77914 357.63868,408.87914 C 362.63868,409.34614 372.88868,415.27914 388.38868,426.67914 407.62168,436.57914 419.08868,443.64614 422.78868,447.87914 424.48868,449.87914 425.85568,452.51214 426.88868,455.77914 424.58868,453.81214 421.77168,452.07914 418.43868,450.57914 414.50568,448.97914 411.42168,447.62914 409.18868,446.52914 410.15568,445.96214 411.58868,445.62914 413.48868,445.52914 414.52168,445.49614 416.10568,445.46214 418.23868,445.42914 416.33868,443.36314 412.18868,441.82914 405.78868,440.82914 402.65568,440.32914 398.03868,439.91214 391.93868,439.57914 392.87268,439.21214 394.85568,438.87914 397.88868,438.57914 400.48868,438.31214 402.27168,437.81214 403.23868,437.07914 400.23868,435.77914 395.57168,435.11314 389.23868,435.07914 382.57168,435.07914 377.93868,434.61314 375.33868,433.67914 377.90568,433.71214 381.13868,433.37914 385.03868,432.67914 387.20568,432.31214 390.40568,431.72914 394.63868,430.92914 z"
                     style="opacity:0.15;fill-rule:evenodd;stroke:none"
                     inkscape:connector-curvature="0" />
                <path
                     id="path3484"
                     d="M 393.98928,452.43004 C 397.05628,452.43004 397.63928,451.54704 395.73928,449.78004 L 391.98928,447.08004 398.58928,448.68004 C 403.78928,449.91304 408.47228,450.94704 412.63928,451.78004 416.80628,452.61304 420.62228,453.86304 424.08928,455.53004 425.78928,456.36304 427.08928,457.11304 427.98928,457.78004 H 414.68928 C 412.72228,457.78004 406.05628,457.29704 394.68928,456.33004 382.28928,455.29704 372.27228,454.66304 364.63928,454.43004 354.73928,454.13004 339.48928,454.21304 318.88928,454.68004 299.32228,455.14704 283.90628,455.73004 272.63928,456.43004 258.43928,457.33004 228.33928,457.88004 182.33928,458.08004 186.10628,456.08004 190.65628,453.74704 195.98928,451.08004 201.32228,448.41304 206.20628,446.19704 210.63928,444.43004 209.30628,445.99704 208.30628,447.53004 207.63928,449.03004 206.30628,452.03004 207.30628,453.39704 210.63928,453.13004 213.97228,452.83004 218.08928,451.84604 222.98928,450.18004 225.45628,449.34704 227.57228,448.54704 229.33928,447.78004 L 231.98928,451.13004 C 234.65628,453.33004 238.20628,454.43004 242.63928,454.43004 247.00628,454.43004 253.02228,453.84704 260.68928,452.68004 264.68928,452.08004 269.33928,451.33004 274.63928,450.43004 275.80628,450.29704 281.88928,450.83004 292.88928,452.03004 304.22228,453.26304 312.80628,453.63004 318.63928,453.13004 325.03928,452.56304 328.62228,451.16304 329.38928,448.93004 329.78928,447.83004 329.53928,446.78004 328.63928,445.78004 L 339.08928,447.53004 C 347.42228,448.73004 355.05628,449.48004 361.98928,449.78004 367.98928,450.01304 374.48928,450.53004 381.48928,451.33004 387.68928,452.06304 391.85628,452.43004 393.98928,452.43004 z"
                     style="opacity:0.14839998;fill-rule:evenodd;stroke:none"
                     inkscape:connector-curvature="0" />
                <path
                     id="path3502"
                     d="M 385.33928,457.43004 C 380.00628,457.26304 372.37228,457.24704 362.43928,457.38004 352.43928,457.54704 344.28928,457.79704 337.98928,458.13004 329.55628,458.56304 308.67228,458.78004 275.33928,458.78004 H 234.63928 C 228.43928,458.78004 211.00628,458.66304 182.33928,458.43004 L 187.98928,456.13004 C 193.22228,456.56304 199.25628,456.94604 206.08928,457.28004 219.75628,457.94704 230.60628,457.99704 238.63928,457.43004 247.30628,456.86404 269.92328,456.26304 306.48928,455.63004 339.05628,455.06304 362.00628,454.78004 375.33928,454.78004 383.93928,454.78004 395.28928,455.34704 409.38928,456.48004 416.45628,457.01304 422.65628,457.56304 427.98928,458.13004 427.55628,458.23004 425.45628,458.28004 421.68928,458.28004 414.12228,458.28004 402.00628,457.99704 385.33928,457.43004 z"
                     style="opacity:0.25;fill-rule:evenodd;stroke:none"
                     inkscape:connector-curvature="0" />
            </g>
        </g>
    </g>
</svg>
