<?xml version="1.0" encoding="iso-8859-1"?>
<!-- Generator: Adobe Illustrator 24.2.1, SVG Export Plug-In . SVG Version: 6.00 Build 0)  -->
<svg version="1.1" id="gift" xmlns="http://www.w3.org/2000/svg" xmlns:xlink="http://www.w3.org/1999/xlink" x="0px" y="0px"
	 viewBox="0 0 315.074 290.821" style="enable-background:new 0 0 315.074 290.821;" xml:space="preserve">
<pattern  x="-100.042" y="-87.916" width="70.561" height="91.442" patternUnits="userSpaceOnUse" id="heart_x5F_Pattern" viewBox="20.281 -109.303 70.561 91.442" style="overflow:visible;">
	<g>
		<rect x="20.281" y="-109.303" style="fill:none;" width="70.561" height="91.442"/>
		<path id="heart_14_" style="fill:#F29C93;" d="M75.402-15.44c-12.867-12.867,2.573-28.307,15.44-15.44
			c12.867-12.867,28.307,2.573,15.44,15.44C98.048-8.235,98.048-8.235,90.842,0C83.637-8.235,83.637-8.235,75.402-15.44"/>
		<path id="heart_11_" style="fill:#F29C93;" d="M4.84-15.44c-12.867-12.867,2.573-28.307,15.44-15.44
			c12.867-12.867,28.307,2.573,15.44,15.44C27.486-8.235,27.486-8.235,20.281,0C13.075-8.235,13.075-8.235,4.84-15.44"/>
		<path id="heart_10_" style="fill:#F29C93;" d="M40.121-61.161c-12.867-12.867,2.573-28.307,15.44-15.44
			c12.867-12.867,28.307,2.573,15.44,15.44c-8.235,7.206-8.235,7.206-15.44,15.44C48.356-53.956,48.356-53.956,40.121-61.161"/>
		<path id="heart_9_" style="fill:#F29C93;" d="M75.402-106.883c-12.867-12.867,2.573-28.307,15.44-15.44
			c12.867-12.867,28.307,2.573,15.44,15.44c-8.235,7.206-8.235,7.206-15.44,15.44C83.637-99.677,83.637-99.677,75.402-106.883"/>
		<path id="heart_8_" style="fill:#F29C93;" d="M4.84-106.883c-12.867-12.867,2.573-28.307,15.44-15.44
			c12.867-12.867,28.307,2.573,15.44,15.44c-8.235,7.206-8.235,7.206-15.44,15.44C13.075-99.677,13.075-99.677,4.84-106.883"/>
	</g>
</pattern>
<polygon style="fill:#DE6462;" points="18.411,111.442 17.463,282.158 297.505,282.158 298.263,113.526 "/>
<polygon style="fill:url(#heart_x5F_Pattern);" points="18.789,111.537 17.842,282.084 297.884,282.084 298.642,113.621 "/>
<path id="ribbon_x5F_rope" style="fill:none;stroke:#D9AE22;stroke-width:18;stroke-miterlimit:10;" d="M158.874,94.705
	c5.085-0.257,1.171-28.188,18.695-55.579c3.511-5.488,18.767-29.335,38.4-27.789c6.751,0.531,15.906,4.214,18.189,11.116
	c3.039,9.187-7.543,19.703-25.768,37.389c-18.116,17.581-27.174,26.371-37.895,28.295c-24.523,4.401-33.979-5.684-51.916-16.674
	c-2.48-1.355-10.105-7.326-17.179-12.758C83.108,44.66,80.644,43.979,79.547,36.6c-1.137-7.651,4.841-17.362,12.632-20.211
	c14.85-5.431,34.886,14.586,44.463,27.789C154.641,68.993,153.992,94.952,158.874,94.705z"/>
<polygon style="fill:#C53E3C;" points="7.042,75.253 7.421,146.116 307.168,146.874 307.168,76.011 "/>
<line id="ribbon" style="fill:none;stroke:#D94C44;stroke-width:53;stroke-miterlimit:10;" x1="156.958" y1="75.632" x2="156.958" y2="282.084"/>
</svg>
