<?xml version="1.0" encoding="iso-8859-1"?>
<!-- Generator: Adobe Illustrator 24.2.1, SVG Export Plug-In . SVG Version: 6.00 Build 0)  -->
<svg version="1.1" id="locker" xmlns="http://www.w3.org/2000/svg" xmlns:xlink="http://www.w3.org/1999/xlink" x="0px" y="0px"
	 viewBox="0 0 170.568 283.495" style="enable-background:new 0 0 170.568 283.495;" xml:space="preserve">
<path id="locker_x5F_toggle" style="fill:#BEBDBF;" d="M17.653,155.589l0.126-99.032C18.916,29.779,48.475,0.497,87.126,0.853
	c41.179,0.379,66.695,27.916,67.453,56.463l-0.379,70.105l-20.211,0.253l0.253-12.758c8.6-6.507,8.916-12.749,0-18.695l0.632-38.653
	c-1.011-17.937-24.761-35.886-46.737-36.253C65.4,20.937,39.126,37.358,38.242,55.295l-0.379,100.168L17.653,155.589"/>
<path style="fill:#DEAC34;" d="M15.136,146.954l140.859,0.851c7.304,0.044,13.216,5.949,13.271,13.252l0.816,109.52
	c0.053,7.135-5.739,12.936-12.874,12.893l-140.952-0.839c-8.738-0.052-15.767-7.202-15.669-15.94l1.191-106.608
	C1.86,152.777,7.83,146.909,15.136,146.954z"/>
<path style="fill:#4C5044;" d="M76.8,243.758l17.716,0.095l0.474-35.526c4.263-3.158,8.053-5.368,7.232-14.4
	c-1.263-10.168-7.011-12.505-15.663-13.547c-12,1.042-14.919,5.495-16.768,13.168c-0.938,6.815,2.803,12.212,7.105,15.253
	L76.8,243.758z"/>
</svg>
