<?xml version="1.0" encoding="iso-8859-1"?>
<!-- Generator: Adobe Illustrator 24.2.1, SVG Export Plug-In . SVG Version: 6.00 Build 0)  -->
<svg version="1.1" id="safe_x5F_box" xmlns="http://www.w3.org/2000/svg" xmlns:xlink="http://www.w3.org/1999/xlink" x="0px"
	 y="0px" viewBox="0 0 404.505 438.105" style="enable-background:new 0 0 404.505 438.105;" xml:space="preserve">
<path style="fill:#818282;" d="M67.695,372.116c-8.819,8.671-10.273,16.882-0.253,24.379l47.621-0.126l44.842-23.621L67.695,372.116
	z"/>
<path style="fill:#818282;" d="M336.073,372.4c8.819,8.671,10.273,16.882,0.253,24.379l-47.621-0.126l-44.842-23.621L336.073,372.4z
	"/>
<path style="fill:#939493;" d="M348.116,373H54.053c-13.673,0-24.758-11.084-24.758-24.758V63.274
	c0-13.673,11.084-24.758,24.758-24.758h294.063c13.673,0,24.758,11.084,24.758,24.758v284.968
	C372.874,361.916,361.789,373,348.116,373z M313.253,97.632H89.926v217.263h223.326V97.632z"/>
<path style="fill:#818282;" d="M341.042,349.758H64.663c-4.465,0-8.084-3.619-8.084-8.084V70.347c0-4.465,3.619-8.084,8.084-8.084
	h276.379c4.465,0,8.084,3.619,8.084,8.084v271.326C349.126,346.138,345.507,349.758,341.042,349.758z M313.253,97.632H89.926
	v217.263h223.326V97.632z"/>
<g id="safe_x5F_door">
	<rect x="76.789" y="83.989" style="fill:#939493;" width="251.621" height="244.547"/>
	
		<rect x="90.432" y="98.642" style="fill:none;stroke:#DCDDDD;stroke-width:2;stroke-miterlimit:10;" width="222.821" height="215.747"/>
	<path style="fill:#B5B7B5;" d="M327.653,156.242L327.4,256.789l-144.758-0.758c-21.474,0-41.432-27.284-41.432-51.032
		c0.758-20.463,20.968-48.505,40.926-48.505L327.653,156.242z"/>
	<circle id="safe_x5F_push" style="fill:#D5D6D5;" cx="184.663" cy="206.263" r="30.568"/>
	<path style="fill:#DADBD9;" d="M250.726,189.337h-9.6c-2.302,0-4.168-1.866-4.168-4.168v-3.284c0-2.302,1.866-4.168,4.168-4.168
		h9.6c2.302,0,4.168,1.866,4.168,4.168v3.284C254.895,187.471,253.028,189.337,250.726,189.337z"/>
	<path style="fill:#DADBD9;" d="M274.6,189.463H265c-2.302,0-4.168-1.866-4.168-4.168v-3.284c0-2.302,1.866-4.168,4.168-4.168h9.6
		c2.302,0,4.168,1.866,4.168,4.168v3.284C278.768,187.597,276.902,189.463,274.6,189.463z"/>
	<path style="fill:#DADBD9;" d="M297.084,189.463h-9.6c-2.302,0-4.168-1.866-4.168-4.168v-3.284c0-2.302,1.866-4.168,4.168-4.168
		h9.6c2.302,0,4.168,1.866,4.168,4.168v3.284C301.253,187.597,299.386,189.463,297.084,189.463z"/>
	<path style="fill:#DADBD9;" d="M251.105,204.621h-9.6c-2.302,0-4.168-1.866-4.168-4.168v-3.284c0-2.302,1.866-4.168,4.168-4.168
		h9.6c2.302,0,4.168,1.866,4.168,4.168v3.284C255.274,202.755,253.407,204.621,251.105,204.621z"/>
	<path style="fill:#DADBD9;" d="M274.347,204.874h-9.6c-2.302,0-4.168-1.866-4.168-4.168v-3.284c0-2.302,1.866-4.168,4.168-4.168
		h9.6c2.302,0,4.168,1.866,4.168,4.168v3.284C278.516,203.007,276.65,204.874,274.347,204.874z"/>
	<path style="fill:#DADBD9;" d="M296.579,205.379h-9.6c-2.302,0-4.168-1.866-4.168-4.168v-3.284c0-2.302,1.866-4.168,4.168-4.168
		h9.6c2.302,0,4.168,1.866,4.168,4.168v3.284C300.747,203.513,298.881,205.379,296.579,205.379z"/>
	<path style="fill:#DADBD9;" d="M251.358,219.526h-9.6c-2.302,0-4.168-1.866-4.168-4.168v-3.284c0-2.302,1.866-4.168,4.168-4.168
		h9.6c2.302,0,4.168,1.866,4.168,4.168v3.284C255.526,217.66,253.66,219.526,251.358,219.526z"/>
	<path style="fill:#DADBD9;" d="M273.842,219.274h-9.6c-2.302,0-4.168-1.866-4.168-4.168v-3.284c0-2.302,1.866-4.168,4.168-4.168
		h9.6c2.302,0,4.168,1.866,4.168,4.168v3.284C278.011,217.407,276.144,219.274,273.842,219.274z"/>
	<path style="fill:#DADBD9;" d="M296.579,219.274h-9.6c-2.302,0-4.168-1.866-4.168-4.168v-3.284c0-2.302,1.866-4.168,4.168-4.168
		h9.6c2.302,0,4.168,1.866,4.168,4.168v3.284C300.747,217.407,298.881,219.274,296.579,219.274z"/>
	<path style="fill:#DADBD9;" d="M274.095,234.179h-9.6c-2.302,0-4.168-1.866-4.168-4.168v-3.284c0-2.302,1.866-4.168,4.168-4.168
		h9.6c2.302,0,4.168,1.866,4.168,4.168v3.284C278.263,232.313,276.397,234.179,274.095,234.179z"/>
</g>
</svg>
